M48
; DRILL file {KiCad 5.1.6-c6e7f7d~87~ubuntu18.04.1} date Mon Nov  2 16:56:21 2020
; FORMAT={-:-/ absolute / inch / decimal}
; #@! TF.CreationDate,2020-11-02T16:56:21-05:00
; #@! TF.GenerationSoftware,Kicad,Pcbnew,5.1.6-c6e7f7d~87~ubuntu18.04.1
; #@! TF.FileFunction,Plated,1,2,PTH
FMAT,2
INCH
T1C0.0157
T2C0.0315
T3C0.0394
T4C0.0512
%
G90
G05
T1
X3.94Y-2.31
X4.0Y-3.64
X4.25Y-2.48
X4.28Y-2.34
X4.46Y-2.38
T2
X3.3028Y-3.1373
X3.7028Y-3.1373
X5.1378Y-2.5925
X5.5378Y-2.5925
X5.1329Y-2.7372
X5.5329Y-2.7372
T3
X3.7571Y-2.4864
X3.7571Y-2.5864
X3.7571Y-2.6864
X3.7571Y-2.7864
X4.8937Y-2.3976
X4.8937Y-2.4976
X4.8937Y-2.5976
X4.8937Y-2.6976
X4.8937Y-2.7976
X4.8937Y-2.8976
X4.8937Y-2.9976
X4.8937Y-3.0976
X4.8937Y-3.1976
X4.8937Y-3.2976
X4.8937Y-3.3976
X4.8937Y-3.4976
X4.8937Y-3.5976
X4.8937Y-3.6976
X4.8937Y-3.7976
X4.8937Y-3.8976
X4.2Y-2.02
X4.3Y-2.02
X4.4Y-2.02
X4.5Y-2.02
X4.6Y-2.02
X4.7Y-2.02
X4.8Y-2.02
X3.76Y-3.4862
X3.76Y-3.5862
X3.76Y-3.6862
X5.1959Y-2.3533
X5.2959Y-2.3533
X5.3959Y-2.3533
X5.4959Y-2.3533
X3.76Y-4.15
X3.76Y-4.25
X4.0906Y-2.3976
X4.0906Y-2.4976
X4.0906Y-2.5976
X4.0906Y-2.6976
X4.0906Y-2.7976
X4.0906Y-2.8976
X4.0906Y-2.9976
X4.0906Y-3.0976
X4.0906Y-3.1976
X4.0906Y-3.2976
X4.0906Y-3.3976
X4.0906Y-3.4976
T4
X3.441Y-2.3135
X3.441Y-2.5104
X3.441Y-2.7072
X3.441Y-2.9041
X3.44Y-3.3814
X3.44Y-3.5783
X3.44Y-3.7751
X3.44Y-4.0773
X3.44Y-4.2741
T0
M30
