G04 #@! TF.GenerationSoftware,KiCad,Pcbnew,5.1.4-e60b266~84~ubuntu18.04.1*
G04 #@! TF.CreationDate,2019-11-01T20:53:30-04:00*
G04 #@! TF.ProjectId,ib4,6962342e-6b69-4636-9164-5f7063625858,rev?*
G04 #@! TF.SameCoordinates,Original*
G04 #@! TF.FileFunction,Copper,L4,Bot*
G04 #@! TF.FilePolarity,Positive*
%FSLAX46Y46*%
G04 Gerber Fmt 4.6, Leading zero omitted, Abs format (unit mm)*
G04 Created by KiCad (PCBNEW 5.1.4-e60b266~84~ubuntu18.04.1) date 2019-11-01 20:53:30*
%MOMM*%
%LPD*%
G04 APERTURE LIST*
%ADD10C,1.676400*%
%ADD11O,1.700000X1.700000*%
%ADD12R,1.700000X1.700000*%
%ADD13C,2.400000*%
%ADD14R,2.400000X2.400000*%
%ADD15C,1.600000*%
%ADD16O,1.600000X1.600000*%
%ADD17C,3.000000*%
%ADD18C,1.700000*%
G04 APERTURE END LIST*
D10*
X56493800Y24224600D03*
X56493800Y26764600D03*
X56493800Y29304600D03*
X56493800Y31844600D03*
X56493800Y34384600D03*
X56493800Y36924600D03*
X56493800Y39464600D03*
X56493800Y42004600D03*
X56493800Y44544600D03*
X56493800Y47084600D03*
X56493800Y49624600D03*
X56493800Y52164600D03*
X56493800Y54704600D03*
X56493800Y57244600D03*
X71733800Y57244600D03*
X71733800Y54704600D03*
X71733800Y52164600D03*
X71733800Y49624600D03*
X71733800Y47084600D03*
X71733800Y44544600D03*
X71733800Y42004600D03*
X71733800Y39464600D03*
X71733800Y36924600D03*
X71733800Y34384600D03*
X71733800Y31844600D03*
X71733800Y29304600D03*
X71733800Y26764600D03*
X71733800Y24224600D03*
D11*
X47200000Y49290000D03*
D12*
X47200000Y46750000D03*
D13*
X13450000Y18950000D03*
X13450000Y22450000D03*
D14*
X13450000Y25950000D03*
X13150000Y42050000D03*
D13*
X13150000Y38550000D03*
X13150000Y35050000D03*
X13250000Y50350000D03*
X13250000Y53850000D03*
D14*
X13250000Y57350000D03*
D15*
X27450000Y30400000D03*
D16*
X27450000Y35480000D03*
D11*
X26950000Y44490000D03*
X26950000Y47030000D03*
X26950000Y49570000D03*
X26950000Y52110000D03*
D12*
X26950000Y54650000D03*
D11*
X80500000Y45880000D03*
X80500000Y48420000D03*
X80500000Y50960000D03*
X80500000Y53500000D03*
X80500000Y56040000D03*
X80500000Y58580000D03*
X80500000Y61120000D03*
X80500000Y63660000D03*
D12*
X80500000Y66200000D03*
D11*
X44440000Y64950000D03*
X41900000Y64950000D03*
X39360000Y64950000D03*
X36820000Y64950000D03*
X34280000Y64950000D03*
X31740000Y64950000D03*
D12*
X29200000Y64950000D03*
D17*
X20600000Y27750000D03*
X21700000Y16800000D03*
X19550000Y50350000D03*
X26700000Y39450000D03*
X19850000Y38900000D03*
X36000000Y46050000D03*
X76150000Y40150000D03*
X19300000Y61550000D03*
X53800000Y65050000D03*
X45900000Y55550000D03*
X36400000Y32050000D03*
D18*
X56430300Y39401100D02*
X56493800Y39464600D01*
X71797300Y24288100D02*
X71733800Y24224600D01*
X24490000Y52110000D02*
X26950000Y52110000D01*
X23050000Y53550000D02*
X24490000Y52110000D01*
X27130000Y52290000D02*
X26950000Y52110000D01*
X22550000Y42850000D02*
X23050000Y42350000D01*
X23050000Y42350000D02*
X23050000Y58150000D01*
X13250000Y57350000D02*
X21850000Y57350000D01*
X21850000Y57350000D02*
X23050000Y56150000D01*
X23050000Y58150000D02*
X23050000Y56150000D01*
X23050000Y56150000D02*
X23050000Y53550000D01*
X21750000Y42050000D02*
X13150000Y42050000D01*
X22550000Y42850000D02*
X21750000Y42050000D01*
X16350000Y25950000D02*
X13450000Y25950000D01*
X22550000Y42850000D02*
X22550000Y41300000D01*
X22550000Y41300000D02*
X23150000Y40700000D01*
X23150000Y40700000D02*
X23150000Y33250000D01*
X16350000Y26450000D02*
X16350000Y25950000D01*
X23150000Y33250000D02*
X23150000Y30300000D01*
X23150000Y30300000D02*
X20600000Y27750000D01*
X18800000Y25950000D02*
X20600000Y27750000D01*
X16350000Y25950000D02*
X18800000Y25950000D01*
X80500000Y63660000D02*
X84360000Y63660000D01*
X73835400Y52164600D02*
X71733800Y52164600D01*
X75050000Y50950000D02*
X73835400Y52164600D01*
X79287919Y50950000D02*
X75050000Y50950000D01*
X80500000Y50960000D02*
X79297919Y50960000D01*
X79297919Y50960000D02*
X79287919Y50950000D01*
X75295400Y54704600D02*
X71733800Y54704600D01*
X76450000Y53550000D02*
X75295400Y54704600D01*
X79247919Y53550000D02*
X76450000Y53550000D01*
X80500000Y53500000D02*
X79297919Y53500000D01*
X79297919Y53500000D02*
X79247919Y53550000D01*
X70548407Y49624600D02*
X71733800Y49624600D01*
X68750000Y50950000D02*
X70000000Y49700000D01*
X74784938Y60700000D02*
X70250000Y60700000D01*
X70000000Y49700000D02*
X70473007Y49700000D01*
X70250000Y60700000D02*
X68750000Y59200000D01*
X70473007Y49700000D02*
X70548407Y49624600D01*
X68750000Y59200000D02*
X68750000Y50950000D01*
X79444938Y56040000D02*
X74784938Y60700000D01*
X80500000Y56040000D02*
X79444938Y56040000D01*
X72048400Y26450000D02*
X71733800Y26764600D01*
X13450000Y18950000D02*
X8050000Y18950000D01*
X8050000Y18950000D02*
X4950000Y22050000D01*
X4950000Y22050000D02*
X4950000Y32450000D01*
X4950000Y32450000D02*
X7650000Y35150000D01*
X7750000Y35050000D02*
X13150000Y35050000D01*
X7650000Y35150000D02*
X7750000Y35050000D01*
X4950000Y32450000D02*
X4950000Y58750000D01*
X4950000Y58750000D02*
X4950000Y59650000D01*
X4950000Y58750000D02*
X4950000Y59850000D01*
X4950000Y59850000D02*
X7750000Y62650000D01*
X13250000Y50350000D02*
X19550000Y50350000D01*
X27450000Y30400000D02*
X27450000Y29000000D01*
X27450000Y29000000D02*
X21300000Y22850000D01*
X21300000Y22850000D02*
X21300000Y21800000D01*
X21300000Y21800000D02*
X18400000Y18900000D01*
X18350000Y18950000D02*
X13450000Y18950000D01*
X18400000Y18900000D02*
X18350000Y18950000D01*
X70335400Y26764600D02*
X71733800Y26764600D01*
X68700000Y43950000D02*
X68700000Y28400000D01*
X66000000Y46650000D02*
X68700000Y43950000D01*
X68700000Y28400000D02*
X70335400Y26764600D01*
X66000000Y61950000D02*
X66000000Y46650000D01*
X70200000Y66150000D02*
X66000000Y61950000D01*
X13450000Y18950000D02*
X13450000Y17252944D01*
X77900000Y66150000D02*
X70200000Y66150000D01*
X80500000Y66200000D02*
X77950000Y66200000D01*
X77950000Y66200000D02*
X77900000Y66150000D01*
X56493800Y24224600D02*
X56493800Y24093800D01*
X56430300Y34321100D02*
X56493800Y34384600D01*
X13450000Y22450000D02*
X10150000Y22450000D01*
X10150000Y22450000D02*
X8550000Y24050000D01*
X8550000Y24050000D02*
X8550000Y27850000D01*
X8550000Y27850000D02*
X11150000Y30450000D01*
X11150000Y30450000D02*
X15150000Y30450000D01*
X15150000Y30450000D02*
X17450000Y32750000D01*
X17450000Y32750000D02*
X17450000Y36950000D01*
X17450000Y36950000D02*
X15750000Y38650000D01*
X15650000Y38550000D02*
X13150000Y38550000D01*
X15750000Y38650000D02*
X15650000Y38550000D01*
X8950000Y53850000D02*
X13250000Y53850000D01*
X7950000Y52950000D02*
X8050000Y52950000D01*
X7950000Y40850000D02*
X7950000Y52950000D01*
X13150000Y38550000D02*
X10250000Y38550000D01*
X8050000Y52950000D02*
X8950000Y53850000D01*
X10250000Y38550000D02*
X7950000Y40850000D01*
X17450000Y36950000D02*
X17900000Y36950000D01*
X17900000Y36950000D02*
X19850000Y38900000D01*
X27450000Y38700000D02*
X26700000Y39450000D01*
X27450000Y35480000D02*
X27450000Y38700000D01*
X55308407Y34384600D02*
X55243007Y34450000D01*
X56493800Y34384600D02*
X55308407Y34384600D01*
X27450000Y35480000D02*
X31520000Y39550000D01*
X31520000Y39550000D02*
X49150000Y39550000D01*
X54315400Y34384600D02*
X55308407Y34384600D01*
X49150000Y39550000D02*
X54315400Y34384600D01*
X71733800Y34384600D02*
X72919193Y34384600D01*
X72919193Y34384600D02*
X72953793Y34350000D01*
X28152081Y47030000D02*
X28232081Y46950000D01*
X26950000Y47030000D02*
X28152081Y47030000D01*
X28232081Y46950000D02*
X31650000Y46950000D01*
X27859999Y43640001D02*
X27799999Y43640001D01*
X27799999Y43640001D02*
X26950000Y44490000D01*
X28950000Y42550000D02*
X27859999Y43640001D01*
X56493800Y44544600D02*
X53044600Y44544600D01*
X51050000Y42550000D02*
X28950000Y42550000D01*
X53044600Y44544600D02*
X51050000Y42550000D01*
X72923793Y42000000D02*
X73450000Y42000000D01*
X73450000Y42000000D02*
X73500000Y41950000D01*
X71733800Y42004600D02*
X72919193Y42004600D01*
X72919193Y42004600D02*
X72923793Y42000000D01*
X74350000Y41950000D02*
X76150000Y40150000D01*
X73500000Y41950000D02*
X74350000Y41950000D01*
X72923793Y42000000D02*
X73650000Y42000000D01*
X79164600Y44544600D02*
X71733800Y44544600D01*
X80500000Y45880000D02*
X79164600Y44544600D01*
X71825300Y47176100D02*
X71733800Y47084600D01*
X71733800Y47084600D02*
X77134600Y47084600D01*
X77134600Y47084600D02*
X78470000Y48420000D01*
X78470000Y48420000D02*
X80500000Y48420000D01*
X31750000Y26850000D02*
X21700000Y16800000D01*
X28682081Y58150000D02*
X23050000Y58150000D01*
X34280000Y64950000D02*
X34280000Y63747919D01*
X34280000Y63747919D02*
X33641041Y63108959D01*
X33641041Y63108959D02*
X28682081Y58150000D01*
X34280000Y68430000D02*
X34280000Y64950000D01*
X84360000Y69440000D02*
X83800000Y70000000D01*
X58350000Y70000000D02*
X56500000Y71850000D01*
X84360000Y63660000D02*
X84360000Y69440000D01*
X83800000Y70000000D02*
X58350000Y70000000D01*
X56500000Y71850000D02*
X37700000Y71850000D01*
X37700000Y71850000D02*
X34280000Y68430000D01*
X56493800Y26764600D02*
X53585400Y26764600D01*
X53585400Y26764600D02*
X47200000Y33150000D01*
X47200000Y33150000D02*
X47200000Y33250000D01*
X47200000Y33250000D02*
X44700000Y35750000D01*
X44700000Y35750000D02*
X34100000Y35750000D01*
X31750000Y33400000D02*
X31750000Y26850000D01*
X34100000Y35750000D02*
X31750000Y33400000D01*
X28152081Y52110000D02*
X28212081Y52050000D01*
X26950000Y52110000D02*
X28152081Y52110000D01*
X28212081Y52050000D02*
X42200000Y52050000D01*
X44960000Y49290000D02*
X47200000Y49290000D01*
X42200000Y52050000D02*
X44960000Y49290000D01*
X29200000Y64950000D02*
X21650000Y64950000D01*
X26950000Y54650000D02*
X31476084Y54650000D01*
X29200000Y64950000D02*
X29200000Y63250000D01*
X29200000Y63250000D02*
X27300000Y61350000D01*
X7750000Y62650000D02*
X7800000Y62650000D01*
X10100000Y64950000D02*
X21650000Y64950000D01*
X7800000Y62650000D02*
X10100000Y64950000D01*
X27300000Y61350000D02*
X19500000Y61350000D01*
X19500000Y61350000D02*
X19300000Y61550000D01*
X70200000Y66150000D02*
X54900000Y66150000D01*
X54900000Y66150000D02*
X53800000Y65050000D01*
X31476084Y54650000D02*
X45000000Y54650000D01*
X45000000Y54650000D02*
X45900000Y55550000D01*
X44650000Y46750000D02*
X44350000Y46450000D01*
X47200000Y46750000D02*
X44650000Y46750000D01*
X44350000Y46450000D02*
X40500000Y46450000D01*
X37380000Y49570000D02*
X26950000Y49570000D01*
X40500000Y46450000D02*
X37380000Y49570000D01*
X70895601Y23386401D02*
X70895601Y23045601D01*
X71733800Y24224600D02*
X70895601Y23386401D01*
X70895601Y23045601D02*
X67400000Y19550000D01*
X67400000Y19550000D02*
X52700000Y19550000D01*
X52700000Y19550000D02*
X43700000Y28550000D01*
X32550000Y46050000D02*
X36000000Y46050000D01*
X31650000Y46950000D02*
X32550000Y46050000D01*
X39900000Y28550000D02*
X36400000Y32050000D01*
X43700000Y28550000D02*
X39900000Y28550000D01*
X41900000Y63747919D02*
X42000000Y63647919D01*
X41900000Y64950000D02*
X41900000Y63747919D01*
X55308407Y52164600D02*
X55293807Y52150000D01*
X56493800Y52164600D02*
X55308407Y52164600D01*
X55293807Y52150000D02*
X55000000Y52150000D01*
X55000000Y52150000D02*
X51400000Y55750000D01*
X51400000Y55750000D02*
X51400000Y55950000D01*
X51400000Y55950000D02*
X45800000Y61550000D01*
X44097919Y61550000D02*
X41900000Y63747919D01*
X45800000Y61550000D02*
X44097919Y61550000D01*
X36820000Y66152081D02*
X39017919Y68350000D01*
X36820000Y64950000D02*
X36820000Y66152081D01*
X59000000Y61150000D02*
X59000000Y49950000D01*
X58674600Y49624600D02*
X56493800Y49624600D01*
X59000000Y49950000D02*
X58674600Y49624600D01*
X59000000Y61150000D02*
X52100000Y61150000D01*
X48300000Y64950000D02*
X48300000Y68350000D01*
X52100000Y61150000D02*
X48300000Y64950000D01*
X39017919Y68350000D02*
X48300000Y68350000D01*
M02*
