M48
; DRILL file {KiCad 5.1.4-e60b266~84~ubuntu18.04.1} date Fri 01 Nov 2019 08:53:34 PM EDT
; FORMAT={-:-/ absolute / inch / decimal}
; #@! TF.CreationDate,2019-11-01T20:53:34-04:00
; #@! TF.GenerationSoftware,Kicad,Pcbnew,5.1.4-e60b266~84~ubuntu18.04.1
FMAT,2
INCH
T1C0.0315
T2C0.0394
T3C0.0472
T4C0.0591
T5C0.1063
%
G90
G05
T1
X1.0807Y1.3969
X1.0807Y1.1969
T2
X2.8242Y2.2537
X2.8242Y2.1537
X2.8242Y2.0537
X2.8242Y1.9537
X2.8242Y1.8537
X2.8242Y1.7537
X2.8242Y1.6537
X2.8242Y1.5537
X2.8242Y1.4537
X2.8242Y1.3537
X2.8242Y1.2537
X2.8242Y1.1537
X2.8242Y1.0537
X2.8242Y0.9537
X2.2242Y2.2537
X2.2242Y2.1537
X2.2242Y2.0537
X2.2242Y1.9537
X2.2242Y1.8537
X2.2242Y1.7537
X2.2242Y1.6537
X2.2242Y1.5537
X2.2242Y1.4537
X2.2242Y1.3537
X2.2242Y1.2537
X2.2242Y1.1537
X2.2242Y1.0537
X2.2242Y0.9537
X1.8583Y1.9406
X1.8583Y1.8406
X1.061Y2.1516
X1.061Y2.0516
X1.061Y1.9516
X1.061Y1.8516
X1.061Y1.7516
X1.1496Y2.5571
X1.2496Y2.5571
X1.3496Y2.5571
X1.4496Y2.5571
X1.5496Y2.5571
X1.6496Y2.5571
X1.7496Y2.5571
X3.1693Y2.6063
X3.1693Y2.5063
X3.1693Y2.4063
X3.1693Y2.3063
X3.1693Y2.2063
X3.1693Y2.1063
X3.1693Y2.0063
X3.1693Y1.9063
X3.1693Y1.8063
T3
X0.5217Y2.2579
X0.5217Y2.1201
X0.5217Y1.9823
X0.5295Y1.0217
X0.5295Y0.8839
X0.5295Y0.7461
X0.5177Y1.6555
X0.5177Y1.5177
X0.5177Y1.3799
T4
X0.7598Y2.4232
X0.7697Y1.9823
X0.7815Y1.5315
X0.811Y1.0925
X0.8543Y0.6614
X1.0512Y1.5531
X1.4173Y1.813
X1.4331Y1.2618
X1.8071Y2.187
X2.1181Y2.561
X2.998Y1.5807
T5
X3.5433Y2.7854
X0.315Y0.187
X0.315Y2.7854
X3.5433Y0.187
T0
M30
