<?xml version="1.0" encoding="UTF-8" standalone="no"?>
<svg
   xmlns:dc="http://purl.org/dc/elements/1.1/"
   xmlns:cc="http://creativecommons.org/ns#"
   xmlns:rdf="http://www.w3.org/1999/02/22-rdf-syntax-ns#"
   xmlns:svg="http://www.w3.org/2000/svg"
   xmlns="http://www.w3.org/2000/svg"
   xmlns:sodipodi="http://sodipodi.sourceforge.net/DTD/sodipodi-0.dtd"
   xmlns:inkscape="http://www.inkscape.org/namespaces/inkscape"
   version="1.1"
   width="11.939862cm"
   height="16.404167cm"
   viewBox="0 0 47007.365 64583.397"
   id="svg2359"
   sodipodi:docname="ib4-Bottom.svg"
   inkscape:version="0.92.3 (2405546, 2018-03-11)">
  <metadata
     id="metadata2365">
    <rdf:RDF>
      <cc:Work
         rdf:about="">
        <dc:format>image/svg+xml</dc:format>
        <dc:type
           rdf:resource="http://purl.org/dc/dcmitype/StillImage" />
        <dc:title>SVG Picture created as ib4-Bottom.svg date 2019/10/12 20:57:07 </dc:title>
      </cc:Work>
    </rdf:RDF>
  </metadata>
  <defs
     id="defs2363" />
  <sodipodi:namedview
     pagecolor="#ffffff"
     bordercolor="#666666"
     borderopacity="1"
     objecttolerance="10"
     gridtolerance="10"
     guidetolerance="10"
     inkscape:pageopacity="0"
     inkscape:pageshadow="2"
     inkscape:window-width="1299"
     inkscape:window-height="713"
     id="namedview2361"
     showgrid="false"
     inkscape:zoom="0.90509668"
     inkscape:cx="356.5373"
     inkscape:cy="366.18382"
     inkscape:window-x="67"
     inkscape:window-y="27"
     inkscape:window-maximized="1"
     inkscape:current-layer="svg2359" />
  <title
     id="title1247">SVG Picture created as ib4-Bottom.svg date 2019/10/12 20:57:07 </title>
  <desc
     id="desc1249">Picture generated by PCBNEW </desc>
  <path
     style="fill:#000000;stroke-width:104.16675568"
     d="m 4103.9137,64192.76 c 5.71,-214.84 46.13,-507.81 89.83,-651.04 67.03,-219.72 91.27,-232.71 155.1,-83.11 41.61,97.51 45.29,226.42 8.19,286.45 -37.11,60.04 -32.48,165.77 10.29,234.96 42.76,69.19 89.2,233.26 103.2,364.59 18.7,175.31 -28.02,238.78 -175.76,238.78 -164.94,0 -199.36,-70.46 -190.85,-390.63 z m 1291.7,71.23 c -200.25,-79.42 -199.52,-82.91 18.8,-89.95 153.38,-4.95 237.94,-83.42 260.42,-241.7 18.3,-128.9 102.95,-234.37 188.11,-234.37 229.5,0 258.01,353.07 35.16,435.42 -104.49,38.62 -213.43,102.39 -242.07,141.72 -28.65,39.33 -145.83,34.33 -260.42,-11.12 z m 19435.3303,-574.7 c 5,-121.35 29.68,-146.03 62.93,-62.94 30.09,75.2 26.39,165.04 -8.22,199.66 -34.61,34.61 -59.23,-26.91 -54.71,-136.72 z m -2542.95,-217.02 c -38.2,-38.19 -69.45,-137.68 -69.45,-221.08 0,-122.99 29.53,-127.14 156.25,-21.97 85.94,71.32 156.25,170.81 156.25,221.09 0,107.86 -144.13,120.89 -243.05,21.96 z M 5031.4237,62890.68 c 0.6,-201.19 398.89,-807.3 530.5,-807.3 151.21,0 20.3,749.3 -149.83,857.55 -187.29,119.17 -381.1,93.59 -380.67,-50.25 z m 23176.7103,-182.29 c -35.41,-57.3 -14.74,-104.17 45.94,-104.17 60.67,0 110.31,46.87 110.31,104.17 0,57.29 -20.67,104.16 -45.93,104.16 -25.27,0 -74.91,-46.87 -110.32,-104.16 z m 5885.42,-6.15 c 0,-60.67 46.88,-81.34 104.17,-45.94 57.29,35.41 104.17,85.05 104.17,110.32 0,25.26 -46.88,45.93 -104.17,45.93 -57.29,0 -104.17,-49.64 -104.17,-110.31 z m -8229.17,-416.67 c 0,-60.67 46.87,-81.34 104.17,-45.93 57.29,35.41 104.16,85.05 104.16,110.31 0,25.27 -46.87,45.94 -104.16,45.94 -57.3,0 -104.17,-49.64 -104.17,-110.32 z m 9855.56,-52.74 c -48.91,-127.44 -14.35,-147.76 158.15,-93.01 167.43,53.14 201.31,35.93 140.31,-71.32 -62.18,-109.32 -50.67,-113.9 50.8,-20.23 149.35,137.89 60.23,347.62 -147.73,347.62 -76.43,0 -167.12,-73.38 -201.53,-163.06 z m -32646.2103,-213.5 c 168.38,-192.42 167.76,-210.01 -11.37,-321.88 -264.07,-164.91 -350.44,-717.03 -208.49,-1332.82 176.69,-766.51 227.15,-876.17 275.65,-598.96 22.55,128.91 80.98,234.38 129.84,234.38 172.9,0 327.45,720.13 256.34,1194.38 -38.96,259.76 -30.35,471.03 19.12,469.49 49.48,-1.55 243.73,-130.45 431.68,-286.46 l 341.72,-283.66 -211.51,-437.68 c -116.33,-240.72 -211.52,-486.81 -211.52,-546.87 0,-60.06 -39.55,-109.2 -87.9,-109.2 -81.44,0 -81.35,-794.37 0.12,-1141.81 23.84,-101.68 -97.95,-186.57 -366.81,-255.65 -345.12,-88.68 -422.69,-75.83 -544.01,90.09 -174.02,237.99 -224.04,125.04 -274.03,-618.71 -30.21,-449.51 0.67,-550.82 228.22,-748.9 208.89,-181.83 240.54,-266.05 153.48,-408.41 -85.15,-139.24 -59.19,-233.83 116.11,-422.98 124.19,-134 279.02,-243.63 344.06,-243.63 65.05,0 118.26,-70.32 118.26,-156.25 0,-183.92 -50.53,-192.29 -313.02,-51.81 -221.47,118.53 -340.67,6.37 -212.92,-200.34 136.17,-220.33 -195.24,-540.71 -429.58,-415.29 -156.77,83.9 -190.31,62.52 -190.31,-121.29 0,-160.79 46.1,-205.46 164.95,-159.85 90.73,34.82 149.32,27.09 130.21,-17.17 -401.55,-930.02 -500.28,-1023.13 -1040.14,-980.88 -94.63,7.4 -228.63,-54.71 -297.78,-138.02 -193.74,-233.45 313.91,-389.36 1355.26,-416.22 486.98,-12.56 1079.62,-76.55 1316.97,-142.2 367.85,-101.75 766.37,-78.28 766.37,45.14 0,155.85 -267.19,566.67 -368.55,566.67 -69.73,0 -184.67,69.76 -255.43,155.02 -103.8,125.07 -97.97,166.8 30.17,215.97 128.76,49.4 149.22,202.28 108.11,807.63 -27.89,410.67 -67.84,763.81 -88.77,784.74 -20.94,20.94 81.03,302.59 226.6,625.9 145.57,323.31 301.94,705.02 347.5,848.25 45.56,143.23 119.93,354.16 165.27,468.75 75.98,192.01 67.1,196.09 -113.31,52.08 -107.67,-85.94 -163.83,-102.97 -124.82,-37.84 39.01,65.12 2.12,175.51 -81.98,245.31 -114.79,95.26 -126.02,177.17 -45.03,328.49 82.77,154.66 59.23,280.31 -101.12,539.77 -169.78,274.69 -198.7,454.79 -154.11,959.35 30.2,341.65 108.88,731.88 174.85,867.19 106.18,217.79 84.35,274.49 -190.35,494.27 -170.66,136.54 -396.71,248.5 -502.33,248.78 -105.62,0.31 -216.56,94.27 -246.52,208.85 -29.97,114.58 -115.5,208.33 -190.07,208.33 -74.57,0 -221.44,31.39 -326.39,69.75 -180.93,66.14 -181.59,59.21 -12.69,-133.8 z m 240.35,-4305.26 c -83.26,-262.33 -342.9,-248.9 -511.47,26.45 -92.36,150.87 -74.78,218.51 88.26,339.56 174.39,129.49 224.49,130.28 349.25,5.52 90.24,-90.24 118.38,-231.6 73.96,-371.53 z m 31821.1403,4392.19 c -85.94,-29.76 -184.38,-97.08 -218.76,-149.59 -34.38,-52.51 -128.13,-108.71 -208.34,-124.89 -275.39,-55.57 -562.68,-202.9 -718.73,-368.57 -85.94,-91.24 -286.48,-222.99 -445.64,-292.79 -159.16,-69.79 -315.38,-194.66 -347.16,-277.47 -31.78,-82.82 -124.21,-125.08 -205.41,-93.93 -81.2,31.16 -147.63,4.76 -147.63,-58.66 0,-130.67 237.6,-155.49 355.9,-37.18 42.97,42.96 121.1,83.98 173.61,91.14 52.52,7.17 118.93,24.74 147.57,39.06 28.65,14.33 87.24,35 130.21,45.94 186.97,47.61 914.47,429.46 944.45,495.72 18.14,40.1 153.54,27.07 300.9,-28.95 147.36,-56.03 292.67,-77.12 322.92,-46.87 30.25,30.25 -2.46,55 -72.68,55 -70.22,0 -99.97,44.83 -66.11,99.62 33.87,54.79 130.38,73.21 214.49,40.93 215.31,-82.62 191.17,140.18 -28.51,263.13 -99.79,55.84 -148.9,134.06 -109.13,173.82 39.76,39.77 148.62,-4.02 241.9,-97.31 93.29,-93.28 215.83,-141.05 272.31,-106.14 56.49,34.91 87.86,71 69.73,80.2 -18.14,9.19 -126.72,92.13 -241.31,184.31 -114.58,92.17 -278.64,143.24 -364.58,113.48 z m -14528.67,-435.35 c -88.34,-142.94 -10.14,-250.25 143.81,-197.33 63.05,21.66 71.11,95.2 19.53,178.22 -65.11,104.79 -107.34,109.73 -163.34,19.11 z m -1921.19,-254.39 c -66.66,-80.31 -238.38,-175.44 -381.6,-211.39 -143.23,-35.94 -232.29,-110.85 -197.92,-166.47 34.37,-55.61 -16.77,-101.11 -113.65,-101.11 -203.99,0 -913.51,-415.7 -838.14,-491.06 27.84,-27.85 103.86,-17.74 168.91,22.47 114.18,70.57 983.56,175.41 1401.2,168.97 111.94,-1.73 264.28,47.29 338.54,108.92 99.38,82.48 135.43,74.32 136.6,-30.92 1.35,-120.73 15.73,-120.64 92.52,0.62 50.01,78.96 138.81,113.96 197.34,77.79 199.86,-123.52 406.29,48.92 414.75,346.44 6.29,221.18 -49.61,312.71 -218.67,358.05 -399.91,107.25 -875.04,68.16 -999.88,-82.28 z M 7075.3037,61166.95 c -28.25,-45.7 -8.29,-151.17 44.34,-234.37 74.72,-118.11 96.05,-99.9 97.3,83.1 1.63,240.94 -51.29,297.46 -141.64,151.27 z m -2148.44,-541.9 c 0,-190 43.23,-298.08 104.17,-260.42 57.29,35.41 104.17,152.6 104.17,260.42 0,107.82 -46.88,225.01 -104.17,260.42 -60.94,37.66 -104.17,-70.41 -104.17,-260.42 z m 2395.84,246.72 c 0,-17.08 92.69,-80.67 205.99,-141.3 161.57,-86.47 194.29,-79.78 151.76,31.06 -44.71,116.53 -357.75,212.99 -357.75,110.24 z m -156.25,-246.72 c 35.41,-57.29 134.69,-104.17 220.63,-104.17 85.93,0 127.28,46.88 91.87,104.17 -35.41,57.29 -134.69,104.17 -220.63,104.17 -85.94,0 -127.28,-46.88 -91.87,-104.17 z m 25304.9103,-49.85 c -176.23,-133.33 -179.23,-152.26 -24.58,-155.17 96.88,-1.82 207.04,46.68 244.8,107.78 113.48,183.61 -6.14,209.35 -220.22,47.39 z m -8638.23,-158.48 c -35.41,-57.29 -14.74,-104.17 45.93,-104.17 60.68,0 110.32,46.88 110.32,104.17 0,57.29 -20.67,104.16 -45.94,104.16 -25.26,0 -74.9,-46.87 -110.31,-104.16 z m 8125.74,-102.98 c -36.49,-59.05 5.32,-76.51 98.02,-40.94 180.46,69.25 213.48,143.92 63.64,143.92 -53.91,0 -126.66,-46.34 -161.66,-102.98 z m -19158.78,-91.38 c -44.87,-72.6 -53.45,-160.14 -19.07,-194.52 93.23,-93.22 194.87,43.89 144.52,194.94 -35.28,105.86 -59.82,105.77 -125.45,-0.41 z m 9835.12,-124.29 c 0,-60.67 46.87,-81.35 104.17,-45.94 57.29,35.41 104.16,85.05 104.16,110.32 0,25.26 -46.87,45.93 -104.16,45.93 -57.3,0 -104.17,-49.64 -104.17,-110.31 z M 5885.2037,59770.88 c -68.75,-68.75 -125,-230.04 -125,-358.43 0,-128.39 -46.88,-262.41 -104.17,-297.82 -57.29,-35.41 -104.17,-134.69 -104.17,-220.63 0,-85.93 49.54,-125.63 110.09,-88.21 175.6,108.53 619.08,-44.76 619.08,-213.98 0,-84.84 46.87,-154.26 104.17,-154.26 57.29,0 104.16,137.57 104.16,305.72 0,168.14 45.53,425.45 101.17,571.79 89.45,235.28 65.93,284.3 -203.17,423.45 -365.56,189.04 -346.71,187.83 -502.16,32.37 z m 6489.5803,32.34 c -219.6,-47.79 -271.73,-93.67 -175.36,-154.35 75.43,-47.49 164.87,-58.62 198.75,-24.74 33.89,33.89 114.73,17.53 179.66,-36.36 78.56,-65.2 160.44,-30.06 244.84,105.08 140.56,225.08 111.78,232.17 -447.89,110.37 z m -5475.0003,-752.35 c -244.63,-457.1 172.95,-1675.58 690.44,-2014.65 299.63,-196.32 456.59,-103.23 460.05,272.86 0.87,95.48 48.39,189.23 105.58,208.33 57.2,19.1 146.44,182.78 198.33,363.73 81.14,282.97 65.76,336.48 -109.94,382.43 -162.25,42.43 -180.24,24.46 -87.44,-87.37 89.87,-108.28 69.55,-166.1 -87.99,-250.41 -176.25,-94.33 -197.3,-80.82 -150.82,96.9 29.7,113.59 6.88,206.53 -50.72,206.53 -57.59,0 -134.62,159.35 -171.15,354.11 -102.54,546.56 -598.28,837.62 -796.34,467.54 z m 22167.7303,-123.68 c -157.56,-62.25 -286.46,-151.02 -286.46,-197.25 0,-122.56 62.37,-106.86 493.63,124.28 409.46,219.45 279.43,265.26 -207.17,72.97 z m -26905.3503,-79.9 c -37.76,-61.11 -43.65,-136.11 -13.08,-166.69 74.62,-74.61 277.78,56.86 277.78,179.76 0,133.13 -179.83,124.24 -264.7,-13.07 z m 3233.45,-345 c -195.97,-144.89 -197.24,-158.33 -21.55,-226.42 225,-87.2 312.59,-17.54 265.14,210.83 -31.44,151.28 -57.79,152.96 -243.59,15.59 z m 18854.1803,39.43 c -35.4,-57.3 -14.73,-104.17 45.94,-104.17 60.67,0 110.31,46.87 110.31,104.17 0,57.29 -20.67,104.16 -45.93,104.16 -25.27,0 -74.91,-46.87 -110.32,-104.16 z m 8697.93,-312.5 c -85.94,-55.54 -109.38,-100.98 -52.09,-100.98 57.3,0 174.48,45.44 260.42,100.98 85.94,55.53 109.38,100.97 52.08,100.97 -57.29,0 -174.47,-45.44 -260.41,-100.97 z m 1119.79,35.17 c 71.61,-28.89 188.8,-28.89 260.42,0 71.61,28.9 13.02,52.54 -130.21,52.54 -143.23,0 -201.82,-23.64 -130.21,-52.54 z m 546.88,-35.17 c 0,-57.3 49.64,-104.17 110.31,-104.17 60.67,0 81.34,46.87 45.94,104.17 -35.41,57.29 -85.05,104.16 -110.32,104.16 -25.26,0 -45.93,-46.87 -45.93,-104.16 z m -19722.24,-173.62 c -38.2,-38.19 -69.45,-117.88 -69.45,-177.08 0,-65.27 48.52,-59.12 123.27,15.62 67.79,67.8 99.04,147.49 69.44,177.09 -29.6,29.6 -85.07,22.57 -123.26,-15.63 z m 6805.56,-40.87 c 0,-60.67 46.87,-81.34 104.17,-45.93 57.29,35.41 104.16,85.05 104.16,110.31 0,25.27 -46.87,45.94 -104.16,45.94 -57.3,0 -104.17,-49.64 -104.17,-110.32 z m 14943.64,-0.83 c -95.48,-154.5 -5.68,-218.68 197.11,-140.86 93.81,36 144.63,107.42 112.93,158.71 -77.96,126.15 -226.32,117.61 -310.04,-17.85 z M 5136.3437,57814.69 c -60.69,-113.41 -83.76,-312.63 -51.26,-442.71 67.92,-271.83 125.24,-733.87 142.4,-1147.97 6.92,-166.81 71.28,-286.46 154.08,-286.46 286.85,0 691.5,-423.5 679.05,-710.69 -7.64,-176.38 -29.59,-211.89 -59.72,-96.61 -26.2,100.26 -93.84,182.3 -150.31,182.3 -56.48,0 -75.69,43.66 -42.71,97.04 32.99,53.37 -44.99,170.56 -173.28,260.41 -309.55,216.82 -386.87,206 -321.24,-44.95 29.96,-114.59 95.88,-208.34 146.49,-208.34 50.61,0 92.02,-62.39 92.02,-138.65 0,-76.25 115.59,-200.5 256.86,-276.11 141.28,-75.61 235.24,-172.47 208.8,-215.24 -87.1,-140.93 80.41,-733.12 196.44,-694.44 62.47,20.82 120.77,180.79 129.56,355.49 14.44,287.07 363.77,915.19 606.36,1090.27 118.43,85.48 -104.89,435.06 -721.4,1129.21 -315.04,354.72 -468.28,621.57 -468.28,815.45 0,502.81 -414.42,723.34 -623.86,332 z m 36360.3703,23.9 c 4.03,-42.97 47.61,-171.88 96.85,-286.46 79.33,-184.61 90.36,-175.71 96.84,78.13 4.03,157.55 -39.55,286.45 -96.84,286.45 -57.29,0 -100.87,-35.15 -96.85,-78.12 z m -15226.53,-168.88 c -149.21,-77.86 -430.46,-172.53 -625,-210.38 -194.55,-37.85 -424.03,-82.75 -509.97,-99.77 -85.94,-17.02 -364.27,-133 -618.52,-257.73 -254.25,-124.73 -523.79,-226.78 -598.96,-226.78 -75.18,0 -136.69,-46.88 -136.69,-104.17 0,-57.29 -120.27,-104.17 -267.26,-104.17 -147,0 -361.78,-50.58 -477.29,-112.4 -164.34,-87.95 -236.49,-76.2 -331.69,54 -104.63,143.08 -121.67,129.64 -121.67,-95.93 0,-227.59 45.74,-262.33 345.39,-262.33 189.96,0 447.77,56.47 572.91,125.48 125.14,69.02 344.72,141.09 487.95,160.16 143.23,19.07 377.6,127.08 520.83,240.02 370.01,291.76 733.63,435.58 1086.57,429.75 347.21,-5.74 651.79,130.55 922.7,412.88 219.82,229.09 127.67,248.07 -249.3,51.37 z m -12325.58,-261.99 c -45.6,-73.79 -175.89,-109.84 -289.53,-80.12 -261.07,68.27 -499.03,-20.01 -499.03,-185.12 0,-69.82 115.65,-235.6 257,-368.4 248.28,-233.24 279.27,-236.88 911.46,-107.06 359.95,73.91 728.46,197.82 818.91,275.37 90.44,77.54 289.66,140.99 442.7,140.99 356.72,0 361.2,183.55 6.66,272.53 -168.55,42.31 -301.38,19.99 -350.09,-58.83 -57.96,-93.79 -95.04,-83.86 -141.8,37.98 -34.82,90.75 -114.42,164.99 -176.89,164.99 -62.47,0 -87.65,-41.97 -55.95,-93.25 31.7,-51.29 -12.41,-120.13 -98.02,-152.98 -85.61,-32.86 -155.65,-9.25 -155.65,52.46 0,66.63 -102.25,86.52 -251.8,48.99 -153.51,-38.53 -268.04,-14.45 -293.43,61.7 -31.24,93.73 -62.32,91.42 -124.54,-9.25 z m 3898.94,-97.08 c 0,-55.28 -105.94,-127.1 -235.43,-159.6 -129.48,-32.49 -320.78,-203.59 -425.11,-380.21 -141.06,-238.79 -240.94,-304.86 -389.58,-257.68 -298.86,94.85 -241.01,-28.15 94.94,-201.88 395.61,-204.57 951.32,-185.76 967.51,32.75 6.79,91.55 6.79,201.6 0,244.57 -6.78,42.97 39.63,78.12 103.13,78.12 72.62,0 89.98,101.51 46.79,273.6 -56.45,224.93 -38.39,261.97 101.58,208.26 109.77,-42.12 154.83,-19.05 126.87,64.95 -52.03,156.26 -390.7,240.46 -390.7,97.12 z m 729.17,-18.93 c 0,-57.29 44.1,-104.16 98.01,-104.16 53.92,0 126.99,46.87 162.4,104.16 35.41,57.3 -8.69,104.17 -98.02,104.17 -89.31,0 -162.39,-46.87 -162.39,-104.17 z m 11698.56,-208.33 c -64.88,-171.87 -107.41,-312.5 -94.51,-312.5 12.89,0 127.41,140.63 254.48,312.5 155,209.65 186.11,312.5 94.52,312.5 -75.1,0 -189.62,-140.62 -254.49,-312.5 z m -656.89,91.15 c 0,-115.83 217.79,-114.97 401.75,1.59 99.74,63.2 61.42,89.55 -130.21,89.55 -149.35,0 -271.54,-41.01 -271.54,-91.14 z m -11306.37,-306.41 c -37.77,-61.11 -43.65,-136.11 -13.08,-166.68 74.61,-74.62 277.78,56.85 277.78,179.76 0,133.12 -179.84,124.23 -264.7,-13.08 z m -287.39,-445.09 c -31.28,-81.53 83.15,-218.18 275.32,-328.78 l 328.85,-189.27 -241.99,265.48 c -179.68,197.11 -206.5,279.67 -104.17,320.56 96.19,38.44 86.13,57.56 -33.32,63.3 -94.13,4.52 -195.24,-54.56 -224.69,-131.29 z m 11975.71,70.07 c -123.88,-123.88 -73.88,-198.41 133.11,-198.41 153.25,0 175.5,32.61 91.42,133.93 -128.85,155.25 -132.67,156.34 -224.53,64.48 z m -7821.23,-124.91 c -44.87,-72.6 -53.45,-160.13 -19.07,-194.52 93.22,-93.22 194.87,43.89 144.52,194.94 -35.29,105.86 -59.82,105.77 -125.45,-0.41 z m 19696.24,20.75 c -38.2,-38.2 -69.45,-117.89 -69.45,-177.09 0,-65.27 48.52,-59.12 123.27,15.63 67.79,67.79 99.04,147.48 69.44,177.08 -29.6,29.6 -85.07,22.57 -123.26,-15.62 z m 347.22,-138.89 c 0,-57.29 46.87,-104.17 104.17,-104.17 57.29,0 104.16,46.88 104.16,104.17 0,57.29 -46.87,104.16 -104.16,104.16 -57.3,0 -104.17,-46.87 -104.17,-104.16 z m -20651.06,-68.99 c 71.61,-28.9 188.8,-28.9 260.42,0 71.61,28.9 13.02,52.54 -130.21,52.54 -143.23,0 -201.82,-23.64 -130.21,-52.54 z M 9614.3737,55520.88 c 0,-57.29 46.87,-104.17 104.16,-104.17 57.29,0 104.17,46.88 104.17,104.17 0,57.29 -46.88,104.17 -104.17,104.17 -57.29,0 -104.16,-46.88 -104.16,-104.17 z M 28553.184,53678.89 c 75.2,-30.09 165.04,-26.39 199.66,8.22 34.61,34.61 -26.91,59.23 -136.72,54.71 -121.35,-5 -146.03,-29.68 -62.94,-62.94 z M 8364.3637,53437.54 c 0,-57.29 46.88,-104.16 104.17,-104.16 57.29,0 104.17,46.87 104.17,104.16 0,57.3 -46.88,104.17 -104.17,104.17 -57.29,0 -104.17,-46.87 -104.17,-104.17 z m -6692.71,-277.32 c 71.62,-28.89 188.8,-28.89 260.42,0 71.61,28.9 13.02,52.54 -130.21,52.54 -143.23,0 -201.82,-23.64 -130.21,-52.54 z m 37473.9903,-451.84 c -35.41,-57.29 -14.74,-104.17 45.93,-104.17 60.68,0 110.32,46.88 110.32,104.17 0,57.29 -20.67,104.16 -45.94,104.16 -25.26,0 -74.9,-46.87 -110.31,-104.16 z m -28593.77,-110.32 c 0,-60.67 46.87,-81.34 104.16,-45.93 57.29,35.41 104.17,85.05 104.17,110.31 0,25.27 -46.88,45.94 -104.17,45.94 -57.29,0 -104.16,-49.64 -104.16,-110.32 z M 3156.0337,52214.5 c -85.94,-33.41 -213.36,-135.18 -283.15,-226.15 -97.22,-126.72 -127.67,-131.96 -130.21,-22.43 -2.69,116.19 -33.01,118.32 -161.91,11.34 -99.96,-82.96 -133.69,-212.85 -91.23,-351.3 100.76,-328.51 134.29,-334.35 328.46,-57.13 97.9,139.77 165.07,268.39 149.28,285.82 -15.79,17.42 78.81,121.33 210.23,230.9 247.87,206.67 243.64,232.05 -21.47,128.95 z m 30781.2703,-26.96 c 35.41,-57.29 85.05,-104.16 110.32,-104.16 25.26,0 45.93,46.87 45.93,104.16 0,57.3 -49.64,104.17 -110.31,104.17 -60.68,0 -81.35,-46.87 -45.94,-104.17 z m -6614.59,-422.81 c 0,-60.67 46.88,-81.35 104.17,-45.94 57.29,35.41 104.17,85.05 104.17,110.32 0,25.26 -46.88,45.93 -104.17,45.93 -57.29,0 -104.17,-49.64 -104.17,-110.31 z m 5781.26,6.15 c -35.41,-57.3 -14.74,-104.17 45.93,-104.17 60.68,0 110.32,46.87 110.32,104.17 0,57.29 -20.67,104.16 -45.94,104.16 -25.26,0 -74.9,-46.87 -110.31,-104.16 z M 2062.2837,51666.71 c -35.41,-57.29 -14.74,-104.17 45.93,-104.17 60.67,0 110.32,46.88 110.32,104.17 0,57.29 -20.67,104.17 -45.94,104.17 -25.26,0 -74.91,-46.88 -110.31,-104.17 z m 23385.4303,37.75 c 0,-104.72 746.27,-714.83 874.35,-714.83 63.38,0 104.08,56.9 90.44,126.46 -15.28,77.97 41.2,101.13 147.3,60.42 122.11,-46.86 148.21,-27.4 89.87,66.99 -60.88,98.51 -24.94,114.85 138.51,62.97 172.51,-54.75 207.05,-34.43 158.14,93.03 -57.81,150.64 -492.93,161.78 -638.37,16.33 -28.44,-28.43 -117.8,14.39 -198.57,95.16 -80.78,80.78 -215.82,120.41 -300.1,88.07 -84.28,-32.35 -153.23,-6.92 -153.23,56.5 0,63.43 -46.88,115.32 -104.17,115.32 -57.29,0 -104.17,-29.89 -104.17,-66.42 z m -23827.5703,-430.69 -233.8,-179.98 337.97,18.03 c 185.88,9.91 396.56,21.63 468.17,26.04 71.62,4.4 130.21,78.33 130.21,164.27 0,212.85 -410.73,196.27 -702.55,-28.36 z m 22681.7403,90.63 c 0,-51.69 -152.35,-148.23 -338.54,-214.54 l -338.55,-120.56 350.5,-150.05 c 445.04,-190.51 430.75,-193.48 430.75,89.54 0,131.77 56.25,295.84 125,364.59 97.23,97.22 85.65,125 -52.08,125 -97.4,0 -177.08,-42.29 -177.08,-93.98 z m 6875,-218.52 c 0,-57.3 73.08,-104.17 162.4,-104.17 89.32,0 133.43,46.87 98.02,104.17 -35.41,57.29 -108.49,104.16 -162.4,104.16 -53.91,0 -98.02,-46.87 -98.02,-104.16 z M 3692.1837,50766.95 c -176.65,-214.31 -369.39,-533.13 -428.32,-708.49 l -107.14,-318.84 205.67,260.42 c 113.12,143.23 206.71,319.01 207.99,390.63 1.27,71.61 49.19,130.21 106.48,130.21 57.29,0 104.17,53.42 104.17,118.72 0,65.3 81.96,178.65 182.13,251.9 100.17,73.25 152.44,162.86 116.16,199.14 -36.27,36.27 -210.49,-109.39 -387.14,-323.69 z m 20754.0603,-377.16 c 32.96,-267.4 12.23,-284.79 -298.72,-250.52 -183.77,20.25 -400,74.41 -480.51,120.35 -80.51,45.94 41.12,-113.29 270.28,-353.84 510.89,-536.28 1302.09,-1010.04 1302.09,-779.67 0,203 -398.48,978.1 -502.84,978.1 -45.07,0 -136.8,128.9 -203.83,286.46 l -121.89,286.46 z m 5309.01,125.72 c -360.89,-135.83 -416.92,-327.56 -71.47,-244.57 352.61,84.7 379.91,103.68 332.08,230.76 -21.11,56.06 -132.64,61.97 -260.61,13.81 z m 1610.44,38.37 c 75.19,-30.09 165.03,-26.39 199.65,8.22 34.61,34.62 -26.91,59.24 -136.72,54.71 -121.35,-5 -146.03,-29.68 -62.93,-62.93 z m -553.39,-137.17 c 35.41,-57.29 108.49,-104.17 162.4,-104.17 53.91,0 98.02,46.88 98.02,104.17 0,57.29 -73.08,104.17 -162.4,104.17 -89.32,0 -133.43,-46.88 -98.02,-104.17 z m -10986.58,-308.43 c -271.53,-171.73 -44.27,-221.48 267.95,-58.66 241.31,125.84 260.11,157.28 93.62,156.52 -114.58,-0.52 -277.29,-44.56 -361.57,-97.86 z m 7653.24,-89.16 c 57.29,-59.68 244.8,-138.22 416.67,-174.53 215.82,-45.6 264.16,-35.67 156.25,32.11 -253.36,159.14 -694.16,268.72 -572.92,142.42 z m 4843.76,-123.25 c -133.53,-86.29 -129.75,-101.2 26.04,-102.57 100.26,-0.83 182.29,45.28 182.29,102.57 0,127.05 -11.75,127.05 -208.33,0 z m -3796.09,-113.88 c 32.11,-51.95 125.93,-94.45 208.48,-94.45 82.56,0 150.1,-35.43 150.1,-78.74 0,-79.44 382.9,-264.07 797.89,-384.74 123.73,-35.98 281.82,-133.92 351.3,-217.64 139,-167.49 517.48,-208.68 517.48,-56.32 0,52.74 -143.79,127.47 -319.54,166.07 -175.74,38.6 -343.72,133.21 -373.28,210.24 -29.56,77.04 -202.18,171.78 -383.59,210.54 -181.41,38.77 -376.71,105.17 -434.01,147.57 -166.45,123.2 -578.99,201.3 -514.83,97.47 z M 6709.6037,49486.57 c -89.55,-55.35 -100.21,-109.04 -30.22,-152.29 59.45,-36.74 139.46,-16.05 177.8,45.99 95.67,154.8 19.58,209.61 -147.58,106.3 z m -2843.94,-286.85 c 75.2,-30.09 165.04,-26.39 199.66,8.22 34.61,34.61 -26.91,59.23 -136.72,54.71 -121.35,-5 -146.03,-29.69 -62.94,-62.94 z m 18457.0503,-96.96 c 0,-179.9 477.04,-853.4 765.12,-1080.2 l 328.63,-258.74 -349.62,405.19 c -192.3,222.86 -396.1,538.5 -452.9,701.44 -89.38,256.4 -291.23,417.41 -291.23,232.31 z M 2166.4437,48974.03 c -233.15,-75.81 -369.47,-744.82 -151.77,-744.82 72.55,0 94.13,72.58 53.25,179.11 -37.81,98.52 -34.58,144.96 7.16,103.22 41.75,-41.75 184.85,26.44 318.01,151.54 383.37,360.16 295.49,480.73 -226.65,310.95 z m 28815.1803,-111.62 c -219.69,-56.41 -184.75,-91.79 312.5,-316.48 1162.12,-525.13 3055.18,-1798.91 3683.01,-2478.18 172.09,-186.2 346.18,-338.55 386.86,-338.55 160.63,0 1138.92,-992.42 1438.51,-1459.28 355.19,-553.52 614.32,-1597.82 633.04,-2551.14 11.52,-586.58 17.81,-601.59 102.31,-244.18 61.57,260.39 38.24,639.23 -73.77,1197.92 -90.09,449.41 -167.05,967.08 -171.03,1150.39 -3.96,183.31 -48.93,307.51 -99.91,276 -50.98,-31.5 -81.59,6.02 -68.02,83.38 13.57,77.37 -11.58,360.12 -55.88,628.34 -72.86,441.2 -139.41,530.55 -698.24,937.5 -339.74,247.41 -651.3,451.41 -692.37,453.35 -182.39,8.61 -1779.57,1015.84 -2138.88,1348.84 -226.18,209.63 -576.25,408.6 -812.13,461.6 -228.03,51.23 -527.36,214.83 -665.19,363.55 -137.83,148.72 -307.74,270.4 -377.58,270.4 -69.84,0 -200.98,63.01 -291.43,140.02 -95.55,81.36 -268.08,113.41 -411.8,76.52 z m -28294.3403,-633.2 c 35.4,-57.29 108.48,-104.17 162.39,-104.17 53.91,0 98.02,46.88 98.02,104.17 0,57.29 -73.08,104.16 -162.39,104.16 -89.32,0 -133.43,-46.87 -98.02,-104.16 z m 364.58,0 c 0,-57.29 46.88,-104.17 104.17,-104.17 57.29,0 104.16,46.88 104.16,104.17 0,57.29 -46.87,104.16 -104.16,104.16 -57.29,0 -104.17,-46.87 -104.17,-104.16 z m -768.38,-264.45 c -100.52,-261.94 -70.87,-329.53 51.93,-118.37 60.8,104.56 88.6,212.05 61.78,238.87 -26.82,26.82 -77.99,-27.4 -113.71,-120.5 z m 18860.8603,17.41 c -54.45,-141.88 520.62,-653.77 621.32,-553.07 28.37,28.37 -23.4,196.56 -115.03,373.76 -174.6,337.64 -413.12,422.12 -506.29,179.31 z m 15972.14,-120.06 c 72.47,-87.33 153.21,-137.32 179.43,-111.1 72.24,72.24 -74.53,269.86 -200.42,269.86 -69.08,0 -61.17,-59.77 20.99,-158.76 z m -32658.3703,-49.57 c -35.41,-57.29 -14.74,-104.17 45.94,-104.17 60.67,0 110.31,46.88 110.31,104.17 0,57.29 -20.67,104.17 -45.93,104.17 -25.27,0 -74.91,-46.88 -110.32,-104.17 z m -2199.32,-289.8 c -68.81,-44.36 -83.95,-159.54 -37.23,-283.12 71.19,-188.28 85.81,-191.12 151.86,-29.48 95.66,234.09 32.16,407.25 -114.63,312.6 z m 432.94,-15.5 c -32.97,-53.34 -12.3,-126.42 45.93,-162.4 58.23,-35.99 105.87,-115.28 105.87,-176.2 0,-69.86 -57.72,-62.87 -156.25,18.9 -128.26,106.44 -156.25,98.58 -156.25,-43.85 0,-242.34 967.12,-1194.4 2337.45,-2301.04 283,-228.54 681.43,-567.65 885.42,-753.57 203.98,-185.93 406.04,-338.27 449,-338.55 42.97,-0.31 78.45,-59.09 78.84,-130.7 0.4,-71.62 164.46,-241.72 364.58,-378.01 200.13,-136.29 363.16,-300.36 362.28,-364.59 -0.88,-64.23 -47.03,-46.47 -102.57,39.47 -60.67,93.89 -101.61,106.73 -102.57,32.19 -2.42,-187.76 198.79,-272.62 349.62,-147.45 139.91,116.12 702.26,6.86 934.92,-181.64 66.06,-53.52 448.24,-272.95 849.28,-487.6 1083.6503,-580.04 1120.2103,-601.29 1491.8403,-867.49 188.69,-135.15 365.82,-223 393.61,-195.2 27.79,27.79 -116.65,149.17 -320.98,269.73 -204.34,120.56 -398.83,290.36 -432.2,377.34 -56.6,147.51 335.15,673.39 504.68,677.49 40.95,1.04 181.58,99.39 312.5,218.66 130.93,119.28 425.09,373.64 653.7,565.26 228.6,191.62 390.65,373.39 360.1,403.94 -51.88,51.88 -253.81,-100.98 -957.14,-724.55 -157.05,-139.25 -325.57,-253.18 -374.48,-253.18 -48.91,0 -170.9,-90.59 -271.1,-201.31 -100.2,-110.72 -248.09,-176.01 -328.6503,-145.1 -80.55,30.91 -146.46,3.39 -146.46,-61.15 0,-167.56 -485.93,-58.89 -701.75,156.93 -133.06,133.06 -175.97,337.24 -165.61,788.03 7.7,334.64 -28.38,608.44 -80.16,608.44 -51.78,0 -94.15,-63.05 -94.15,-140.11 0,-240.95 -381.79,-510 -617.53,-435.18 -118.69,37.67 -215.8,117.22 -215.8,176.78 0,59.56 -72.09,80.63 -160.2,46.82 -92.59,-35.53 -186.18,6.25 -221.77,99.01 -33.87,88.27 -125.13,136.1 -202.8,106.29 -77.67,-29.8 -191.16,39.13 -252.2,153.18 -61.04,114.06 -155.51,179.86 -209.93,146.23 -54.41,-33.64 -98.94,63.82 -98.94,216.56 0,204.05 -41.44,261.8 -156.25,217.75 -95.18,-36.53 -156.25,-0.21 -156.25,93.02 0,84.14 -46.87,152.98 -104.16,152.98 -57.3,0 -104.17,114.42 -104.17,254.27 0,139.85 -44.83,281.97 -99.62,315.84 -54.79,33.86 -71.39,135.1 -36.9,224.99 34.49,89.88 6.07,198.43 -63.15,241.21 -69.22,42.79 -130.06,225.56 -135.2,406.16 -10.7,376.36 -45.16,393.81 -307.97,155.97 -104.77,-94.82 -190.49,-121.02 -190.49,-58.23 0,62.79 46.87,143.13 104.16,178.54 164.85,101.88 121.05,289.19 -52.08,222.75 -95.18,-36.52 -156.25,-0.21 -156.25,93.02 0,84.14 -46.88,152.98 -104.17,152.98 -57.29,0 -104.16,-46.87 -104.16,-104.16 0,-57.3 -76.06,-104.17 -169.01,-104.17 -136.16,0 -144.54,29.48 -43.12,151.69 129.35,155.84 67.79,369.14 -106.52,369.14 -53.91,0 -98.02,-67.4 -98.02,-149.77 0,-85.57 -89.32,-143.05 -208.34,-134.09 -207.43,15.63 -302.54,179.7 -104.16,179.7 57.29,0 104.16,46.87 104.16,104.16 0,57.29 -70.31,104.17 -156.25,104.17 -85.93,0 -156.25,-54.69 -156.25,-121.53 0,-135.01 -148.7,-20.63 -169.27,130.21 -7.16,52.52 -18.88,135.86 -26.04,185.21 -15.11,104.14 -533.85,25.4 -533.85,-81.03 0,-39.16 58.59,-136.27 130.21,-215.81 86.29,-95.84 42.37,-88.12 -130.21,22.87 -143.23,92.12 -248.7,218.14 -234.38,280.04 14.33,61.89 -21.72,112.54 -80.11,112.54 -59.6,0 -82.2,-125.63 -51.53,-286.46 50.71,-265.97 43.38,-262.24 -102.48,52.08 -167.03,359.94 -212.93,395.9 -308.3,241.58 z m 1297.63,-573.97 c 0,-25.26 -46.87,-74.91 -104.17,-110.31 -57.29,-35.41 -104.16,-14.74 -104.16,45.93 0,60.67 46.87,110.32 104.16,110.32 57.3,0 104.17,-20.68 104.17,-45.94 z m 39218.7803,-995.73 c 35.41,-57.29 85.05,-104.17 110.32,-104.17 25.26,0 45.93,46.88 45.93,104.17 0,57.29 -49.64,104.16 -110.31,104.16 -60.67,0 -81.35,-46.87 -45.94,-104.16 z M 9318.3137,45104.2 c 0,-143.23 23.65,-201.82 52.54,-130.2 28.9,71.61 28.9,188.8 0,260.41 -28.89,71.62 -52.54,13.02 -52.54,-130.21 z m 2275.2203,-1256.14 c 0,-60.68 46.88,-81.35 104.17,-45.94 57.29,35.41 104.17,85.05 104.17,110.31 0,25.27 -46.88,45.94 -104.17,45.94 -57.29,0 -104.17,-49.64 -104.17,-110.31 z m 468.75,-98.02 c -81.47,-131.84 56.42,-131.84 260.42,0 134.66,87.02 131.91,101.19 -19.89,102.57 -96.88,0.88 -205.12,-45.28 -240.53,-102.57 z m 32135.45,-781.25 c -200.52,-136.63 -420.41,-251.11 -488.65,-254.42 -68.23,-3.3 -155.68,-57.16 -194.32,-119.69 -47.34,-76.59 58.87,-102.08 325.5,-78.12 376.52,33.83 878.3,384.16 878.3,613.21 0,149.59 -118.98,112.81 -520.83,-160.98 z m -13645.12,-534.13 c 0.39,-221.85 -68.84,-872.13 -153.85,-1445.04 -173.07,-1166.31 -375.96,-3863.78 -356.49,-4739.59 12.17,-547.41 16.15,-555.29 89.39,-176.99 138.92,717.59 335.71,674.64 914.78,-199.68 71.49,-107.94 -33.74,123.6 -233.84,514.53 -325.56,636.03 -359.49,779.58 -322.66,1364.98 22.64,359.82 86.94,743.09 142.89,851.73 55.95,108.63 278.42,572.52 494.38,1030.85 215.96,458.33 472.74,994.01 570.62,1190.4 l 177.96,357.07 -514.56,705.23 c -720.79,987.89 -809.52,1047.86 -808.62,546.51 z m -16771.57,-1173.24 c -170.2,-47.06 -273.07,-160.28 -296.94,-326.79 -20.09,-140.13 -124.17,-377.88 -231.3,-528.32 -107.13,-150.45 -162.43,-305.89 -122.9,-345.42 39.53,-39.53 -8.73,-40.94 -107.25,-3.13 -106.93,41.03 -179.12,19.26 -179.12,-54.02 0,-79.34 -55.26,-67.49 -156.25,33.5 -85.93,85.94 -156.25,229.91 -156.25,319.94 0,90.03 -42.48,163.69 -94.41,163.69 -51.93,0 -69.9,93.75 -39.93,208.33 30.45,116.48 3.19,208.34 -61.84,208.34 -63.97,0 -116.29,-35.16 -116.25,-78.13 0,-42.97 -244.4,-61.2 -543.18,-40.52 -517.11,35.79 -535.91,28.28 -390.69,-156.25 83.9,-106.62 183.95,-217.73 222.33,-246.92 38.37,-29.19 85.25,-121.82 104.16,-205.86 18.92,-84.03 92.99,-215.84 164.61,-292.91 71.61,-77.07 130.2,-234.92 130.2,-350.77 0,-117.21 85.33,-232.96 192.37,-260.95 139.08,-36.37 179.07,-119.87 144.35,-301.45 -31.96,-167.18 8.21,-272.73 120.14,-315.68 111.58,-42.81 168.14,-190.43 168.14,-438.79 0,-291.1 27.78,-346.5 125,-249.28 361.71,361.71 667.68,5.47 966.29,-1125 l 123.82,-468.75 79.56,520.84 c 43.76,286.46 184.28,778.86 312.26,1094.22 202.15,498.11 228.13,723.77 197.91,1718.75 -54.71,1801.49 -7.72,1672.63 -554.83,1521.34 z m -1614.59,-1782.22 c 35.41,-57.29 14.74,-104.17 -45.93,-104.17 -60.68,0 -110.32,46.88 -110.32,104.17 0,57.29 20.67,104.17 45.94,104.17 25.26,0 74.9,-46.88 110.31,-104.17 z m 25104.95,815.69 c -44.39,-190.82 -73.43,-385.15 -64.52,-431.85 8.91,-46.7 -81.28,-221.8 -200.42,-389.12 -164.6,-231.16 -190.92,-348.34 -109.59,-488.01 101.37,-174.1 107.18,-174.18 110.18,-1.51 1.74,100.26 50.05,182.3 107.34,182.3 57.29,0 104.16,78.12 104.16,173.61 0,95.48 31.33,142.29 69.61,104.01 38.28,-38.28 20.46,-175 -39.6,-303.82 -60.06,-128.82 -158.52,-351.41 -218.8,-494.64 -94.46,-224.42 -110.8,-231.62 -118.25,-52.08 -20.18,486.27 -180.5,491.78 -459.44,15.79 -151.35,-258.25 -275.18,-486.49 -275.18,-507.19 0,-20.71 128.9,-35.8 286.46,-33.54 231.21,3.31 284.86,-41.09 278.18,-230.27 -4.57,-129.67 53.6,-234.37 130.21,-234.37 164.11,0 183.09,226.23 31.68,377.63 -72.95,72.95 -9.36,208.75 200.64,428.5 226.2,236.7 322.2,283.26 363.28,176.21 33.75,-87.95 125.95,-118.59 233.11,-77.47 117.05,44.92 152.58,28.07 104.58,-49.6 -73.79,-119.39 108.76,-530.34 298.94,-672.98 66.33,-49.74 53.67,-110.72 -34.85,-167.84 -106.13,-68.5 -87.66,-103.14 78.13,-146.5 119.43,-31.23 217.14,-11.53 217.14,43.78 0,55.31 44.83,72.86 99.62,39 54.79,-33.87 73.36,-129.99 41.27,-213.61 -32.62,-85 15.31,-180.3 108.72,-216.14 91.88,-35.26 167.06,-152.84 167.06,-261.29 0,-108.46 51.95,-197.19 115.46,-197.19 70.85,0 90.44,-99.68 50.69,-258.03 -46.16,-183.95 2.93,-336.05 171,-529.74 202.33,-233.18 292.19,-262.72 633.72,-208.32 422.92,67.37 904.13,329.96 904.13,493.38 0,54.08 -47.3,69.1 -105.1,33.38 -57.81,-35.73 -311.72,-84.33 -564.24,-108 -697.92,-65.42 -894.91,146.75 -922.89,993.99 -21.98,665.78 -26.95,676.55 -297.47,645.08 -204.22,-23.76 -327.95,43.34 -480.14,260.41 -265.32,378.44 -661.72,1492.89 -578.75,1627.14 36.07,58.37 11.52,71.23 -56.15,29.41 -82.78,-51.16 -120.76,49.34 -121.86,322.44 -2.29,569.13 -156.32,764.34 -258.06,327.05 z m -677.85,-1961.52 c 0,-57.3 -49.64,-104.17 -110.31,-104.17 -60.67,0 -81.34,46.87 -45.94,104.17 35.41,57.29 85.05,104.16 110.32,104.16 25.26,0 45.93,-46.87 45.93,-104.16 z M 1593.5337,38222.93 c -200.53,-38.76 -341.15,-81.03 -312.5,-93.93 73.45,-33.07 1041.66,-66.92 1041.66,-36.42 0,110.39 -432.47,187.69 -729.16,130.35 z m -1015.62999,-65.54 c 100.26,-26.2 264.32,-26.2 364.58,0 100.25999,26.2 18.23,47.64 -182.29,47.64 -200.52,0 -282.55,-21.44 -182.29,-47.64 z m 2682.28999,-32.36 c 0,-57.29 93.75,-104.17 208.34,-104.17 114.58,0 208.33,46.88 208.33,104.17 0,57.29 -93.75,104.17 -208.33,104.17 -114.59,0 -208.34,-46.88 -208.34,-104.17 z m -703.12,-71.8 c 100.26,-26.2 264.32,-26.2 364.58,0 100.26,26.2 18.23,47.63 -182.29,47.63 -200.52,0 -282.55,-21.43 -182.29,-47.63 z m 33697.9003,-106.98 c -301.24,-45.63 -621.17,-439.71 -368.21,-453.54 73.63,-4.03 40.13,-47.61 -74.46,-96.85 -240.57,-103.37 -51.63,-137.42 208.55,-37.58 127.87,49.06 139.82,87.4 45.43,145.73 -87.08,53.82 -23.19,133.38 199.6,248.59 180.22,93.2 327.67,191.68 327.67,218.86 0,27.17 -11.71,42.38 -26.04,33.8 -14.32,-8.59 -154.96,-35.14 -312.54,-59.01 z m -1171.1,-1174.19 c -36.49,-59.05 5.33,-76.51 98.02,-40.94 180.46,69.25 213.48,143.91 63.64,143.91 -53.91,0 -126.65,-46.34 -161.66,-102.97 z m -469.48,-736.51 c 0,-60.67 46.87,-81.35 104.16,-45.94 57.29,35.41 104.17,85.05 104.17,110.32 0,25.26 -46.88,45.93 -104.17,45.93 -57.29,0 -104.16,-49.64 -104.16,-110.31 z m -20617.64,-462.6 c 0,-57.3 66.99,-221.36 148.87,-364.59 81.88,-143.23 148.87,-213.54 148.87,-156.25 0,57.29 -66.99,221.36 -148.87,364.59 -81.88,143.23 -148.87,213.54 -148.87,156.25 z m 15946.58,-156.25 c 0,-143.23 23.64,-201.83 52.54,-130.21 28.9,71.61 28.9,188.8 0,260.41 -28.9,71.62 -52.54,13.03 -52.54,-130.2 z m -21749.6803,-78.13 c 7.95,-100.26 44.19,-205.73 80.52,-234.37 151.6,-119.55 495,-833.34 400.92,-833.34 -56.32,0 -102.39,-49.64 -102.39,-110.31 0,-60.68 46.87,-81.35 104.16,-45.94 57.3,35.41 104.17,11.97 104.17,-52.08 0,-64.06 43.69,-89.47 97.08,-56.47 53.39,33 111.99,-69.7 130.21,-228.22 18.67,-162.46 89.95,-276.87 163.34,-262.19 71.61,14.33 130.21,-13.54 130.21,-61.92 0,-48.38 117.13,-224.16 260.29,-390.63 143.15,-166.46 260.34,-361.25 260.41,-432.86 0.1,-71.62 39.06,-130.21 86.64,-130.21 47.58,0 240.0403,-213.79 427.6903,-475.09 187.65,-261.3 364.77,-451.5 393.6,-422.66 28.84,28.83 -46.44,191.26 -167.27,360.95 -120.83,169.7 -219.7,352.63 -219.7,406.52 0,53.9 -93.75,182.83 -208.33,286.53 -114.58,103.69 -208.3303,275.02 -208.3303,380.73 0,105.7 -82.04,276.22 -182.3,378.94 -100.26,102.71 -198.46,278.49 -218.23,390.62 -19.76,112.13 -82.39,260.42 -139.17,329.52 -56.78,69.11 -73,174.57 -36.04,234.38 36.96,59.8 26.97,108.73 -22.19,108.73 -49.17,0 -144.89,153.49 -212.73,341.08 -177.7,491.43 -955.09,928.16 -922.56,518.29 z m -588.63,-234.37 c -29.97,-114.59 -12,-208.34 39.93,-208.34 51.93,0 94.41,93.75 94.41,208.34 0,114.58 -17.97,208.33 -39.93,208.33 -21.96,0 -64.45,-93.75 -94.41,-208.33 z m -386.49,0 c 0,-57.3 49.64,-104.17 110.31,-104.17 60.68,0 81.35,46.87 45.94,104.17 -35.41,57.29 -85.05,104.16 -110.31,104.16 -25.27,0 -45.94,-46.87 -45.94,-104.16 z m 26562.5203,-6.15 c 0,-60.67 46.88,-81.34 104.17,-45.94 57.29,35.41 104.17,85.05 104.17,110.32 0,25.26 -46.88,45.93 -104.17,45.93 -57.29,0 -104.17,-49.64 -104.17,-110.31 z m -104.17,-312.5 c 0,-60.67 46.88,-81.34 104.17,-45.94 57.29,35.41 104.17,85.05 104.17,110.32 0,25.26 -46.88,45.93 -104.17,45.93 -57.29,0 -104.17,-49.64 -104.17,-110.31 z m -348.88,-875.93 c -32.28,-84.11 -23.59,-174.61 19.31,-201.12 42.9,-26.51 84.81,42.3 93.14,152.91 18.02,239.23 -31.08,260.27 -112.45,48.21 z m -276.12,-472.09 c -61.59,-115.1 -68.67,-208.34 -15.81,-208.34 52.63,0 120.2,93.75 150.16,208.34 29.97,114.58 37.08,208.33 15.82,208.33 -21.27,0 -88.84,-93.75 -150.17,-208.33 z m -104.16,-631.15 c 0,-60.67 46.87,-81.34 104.16,-45.94 57.3,35.41 104.17,85.05 104.17,110.32 0,25.26 -46.87,45.93 -104.17,45.93 -57.29,0 -104.16,-49.64 -104.16,-110.31 z M 4300.4437,32532.22 c -0.78,-160.94 -32.7,-409.8 -70.92,-553.03 -65.08,-243.85 -58.36,-249.29 105.59,-85.56 191.02,190.77 237.89,763.62 70.92,866.81 -59.9,37.02 -104.77,-59.96 -105.59,-228.22 z m 28293.7703,11.19 c -38.93,-101.45 -15.65,-149.07 60.47,-123.7 155.71,51.9 241.44,288.65 104.53,288.65 -55.94,0 -130.19,-74.23 -165,-164.95 z m -15532.97,-149.25 c -35.99,-58.22 -106.91,-80.23 -157.61,-48.9 -50.7,31.34 -213.69,26.48 -362.21,-10.8 -255.81,-64.21 -260.82,-77.96 -95.04,-261.15 96.25,-106.35 215.61,-168.27 265.25,-137.6 49.63,30.68 90.24,-15.83 90.24,-103.35 0,-90.91 60.38,-135.96 140.84,-105.08 77.48,29.73 217.77,-63.36 311.84,-206.93 94.05,-143.54 273.89,-356.83 399.64,-473.984 333.25,-310.474 96.69,-260.499 -470.96,99.494 -271.02,171.87 -521.12,312.5 -555.78,312.5 -34.67,0 -122.96,81.96 -196.2,182.13 -73.25,100.17 -168.45,146.86 -211.55,103.75 -43.11,-43.1 14.72,-183.65 128.5,-312.33 244.65,-276.69 557.84,-768.061 557.84,-875.213 0,-41.611 -63.16,10.716 -140.35,116.283 -88.29,120.737 -165.67,150.966 -208.61,81.487 -37.55,-60.749 76.32,-232.116 253.04,-380.816 176.72,-148.7 301.64,-328.754 277.6,-400.12 -24.05,-71.366 25.57,-180.811 110.25,-243.212 133.78,-98.581 130.85,-122.324 -22.31,-181.099 -104.22,-39.994 -150.26,-25.553 -112.63,35.331 35,56.635 8.53,102.974 -58.83,102.974 -74.35,0 -99.25,-88.745 -63.39,-225.902 49.52,-189.342 10.3,-172.485 -242.39,104.167 -165.81,181.538 -371.66,330.068 -457.45,330.068 -85.78,0 -189.42,54.118 -230.3,120.262 -48.86,79.065 -24.21,94.26 71.98,44.358 80.47,-41.747 64.27,-8.667 -35.99,73.515 -100.26,82.179 -182.29,202.843 -182.29,268.141 0,65.299 -103.12,118.725 -229.17,118.725 -178.24,0 -201.38,-27.778 -104.16,-125 68.75,-68.75 125,-227.074 125,-351.83 0,-124.755 60.8,-277.29 135.11,-338.965 118.05,-97.971 139.04,-299.217 86.65,-830.98 -7.38,-74.995 -62.78,-105.856 -123.1,-68.579 -60.31,37.278 -92.11,120.421 -70.66,184.763 21.44,64.343 -88.11,223.934 -243.46,354.65 -155.34,130.715 -357.54,425.339 -449.32,654.719 -91.78,229.38 -209.04,417.055 -260.59,417.055 -109.47,0 -263.33,494.635 -232.04,745.978 11.85,95.19 -27.58,203.42 -87.61,240.53 -60.03,37.1 -109.15,158.44 -109.15,269.64 0,155.21 -72.61,202.19 -312.5,202.19 -378.06,0 -420.62,-246.38 -91.83,-531.54 137.72,-119.44 195.78,-256.27 154.46,-363.964 -36.43,-94.915 -25.34,-225.225 24.62,-289.579 49.97,-64.353 142.09,-269.349 204.72,-455.547 100.27,-298.146 91.64,-338.542 -72.34,-338.542 -236.6,0 -400.68,361.498 -383.08,844.003 9.68,265.28 -29.58,372.129 -133.99,364.579 -81.23,-5.86 -203,150.26 -270.61,346.95 -151.97,442.1 -411.76,632.27 -600.96,439.9 -108.1,-109.91 -106.19,-129.03 10.16,-101.83 78.77,18.42 164.72,-25.14 190.99,-96.8 32.43,-88.43 -13.58,-107.5 -143.23,-59.37 -105.05,38.99 -38.52,-59 147.83,-217.76 186.35,-158.76 315.77,-325.95 287.6,-371.529 -28.17,-45.578 18.58,-140.795 103.89,-211.594 85.31,-70.798 155.1,-166.808 155.1,-213.356 0,-46.546 54.45,-216.588 120.99,-377.87 66.55,-161.282 111.78,-333.33 100.51,-382.329 -11.26,-48.999 27.64,-147.063 86.45,-217.918 58.8,-70.855 72.16,-167.187 29.69,-214.069 -42.47,-46.883 -27.6,-57.071 33.04,-22.641 119.27,67.72 405.2,-788.262 367.18,-1099.222 -12.41,-101.533 33.29,-171.845 101.56,-156.25 68.27,15.595 147.79,-36.764 176.7,-116.354 36.79,-101.255 9.42,-118.104 -91.14,-56.111 -93.32,57.524 -77.86,-12.123 44.08,-198.583 105.1,-160.72 160.43,-373.422 125.64,-483.031 -40.14,-126.471 4.03,-234.373 124.7,-304.585 167.59,-97.523 168.79,-109.057 11.58,-111.898 -96.4,-1.74 -206.15,94.115 -243.88,213.016 -97.45,307.033 -158.51,195.314 -204.99,-375.052 -41.15,-505.017 -265.43,-939.994 -234.92,-455.62 8.65,137.447 59.15,279.82 112.2,316.384 110.38,76.059 2.59,298.104 -144.7,298.104 -53.91,0 -98.02,-68.841 -98.02,-152.981 0,-90.198 -61.42,-129.41 -149.67,-95.546 -82.32,31.59 -124.18,123.869 -93.03,205.065 31.16,81.196 8.67,147.629 -49.98,147.629 -58.64,0 -125.37,-56.224 -148.27,-124.942 -26.05,-78.149 -67.09,-58.642 -109.58,52.084 -37.36,97.363 -19.18,177.025 40.4,177.025 59.59,0 38.03,70.312 -47.91,156.25 -85.93,85.938 -206.47,156.25 -267.85,156.25 -61.39,0 -117.47,46.875 -124.63,104.167 -7.16,57.292 -24.74,151.042 -39.07,208.333 -14.32,57.292 -31.9,197.917 -39.06,312.501 -7.15,114.583 -73.91,208.333 -148.34,208.333 -74.43,0 -194.65,164.063 -267.16,364.584 -72.51,200.521 -176.08,364.583 -230.14,364.583 -61.49,0 -61.35,-68.274 0.41,-182.291 190.09,-351.133 650.14,-1434.065 688.12,-1619.766 21.08,-103.111 -31.76,-214.371 -117.43,-247.246 -135.61,-52.04 -133.59,-84.28 15.67,-249.208 94.29,-104.19 151.64,-248.838 127.44,-321.439 -25.42,-76.24 -127.43,9.219 -241.49,202.306 -108.61,183.871 -237.4,334.309 -286.2,334.309 -48.8,0 -60.23,89.806 -25.39,199.567 34.84,109.763 14.56,229.716 -45.06,266.565 -59.67,36.849 -108.45,-6.081 -108.45,-95.4 0,-89.319 -52.34,-162.398 -116.31,-162.398 -65.04,0 -92.3,91.855 -61.84,208.333 29.96,114.584 10.52,208.334 -43.2,208.334 -138.67,0 -244.28,-320.047 -132.37,-401.138 51.32,-37.188 182.1,-231.675 290.62,-432.196 108.53,-200.521 277.32,-458.334 375.1,-572.917 200.22,-234.611 356.6,-579.111 325.15,-716.287 -11.51,-50.208 74.8,-158.335 191.8,-240.282 116.99,-81.948 212.72,-217.78 212.72,-301.85 0,-84.07 164.06,-391.36 364.58,-682.866 200.52,-291.507 364.59,-595.064 364.59,-674.573 0,-79.509 39.42,-144.561 87.61,-144.561 48.18,0 214.72,-233.538 370.07,-518.973 244.41,-449.056 373.36,-953.644 532.91,-2085.196 53.65,-380.498 64.81,-389.682 141.39,-116.389 38.26,136.508 22.56,722.446 -34.87,1302.085 -126.51,1276.826 -104.89,3077.499 48.9,4071.482 113.56,733.978 461.25,1642.383 739.47,1932.017 81.66,85.009 233.38,287.143 337.16,449.188 109.09,170.327 249.11,271.446 331.89,239.681 92.67,-35.56 122.95,-2.198 85.82,94.55 -36.05,93.944 38.06,185.778 199.44,247.132 141.24,53.699 286.65,175.436 323.14,270.527 36.49,95.09 122.66,154.119 191.49,131.177 115.47,-38.491 313.59,86.058 660.18,415.016 75.45,71.614 185.08,130.208 243.62,130.208 58.53,0 143.91,64.514 189.73,143.364 87.49,150.577 733.51,464.202 1437.47,697.85 1244.12,412.938 4239.1,-75.158 5416.67,-882.753 415.14,-284.714 683.46,-619.31 558.53,-696.517 -56.57,-34.966 -30.91,-118.627 59.38,-193.559 247.42,-205.339 877.72,-1450.367 1136.79,-2245.471 272.93,-837.646 445.59,-2408.747 354.89,-3229.169 -84.59,-765.082 -199.29,-1194.567 -639.86,-2395.835 -171.06,-466.436 -268.21,-947.965 -269.62,-1336.402 -3.47,-957.971 -836.13,-2787.449 -1471.1,-3232.196 -130.5,-91.408 -210.26,-193.215 -177.24,-226.235 129.29,-129.287 834.63,775.693 1240.57,1591.69 387.91,779.756 558.04,1259.52 655.67,1848.975 18.98,114.583 118.35,489.583 220.82,833.334 102.47,343.75 202.11,718.75 221.41,833.334 19.31,114.583 107.28,583.334 195.5,1041.667 189.07,982.33 355.69,3412.614 239.56,3494.182 -88.28,62.008 -89.79,84.935 -130.29,1974.573 -22.9,1068.735 1.93,1337.962 138.54,1502.281 91.55,110.11 108.39,166.268 37.43,124.799 -87.16,-50.939 -108.89,-22.955 -66.98,86.261 34.12,88.913 110.45,161.66 169.62,161.66 59.17,0 162.46,75.052 229.53,166.78 86.71,118.586 308.68,171.036 768.15,181.51 467.55,10.658 632.46,50.503 596.53,144.132 -27.31,71.171 54.07,179.577 180.84,240.903 210.92,102.03 214.75,98.788 45.15,-38.175 -176.56,-142.569 -176.65,-153.018 -1.99,-220.041 100.85,-38.7 199.88,-20.806 220.07,39.764 20.19,60.571 100.35,110.128 178.13,110.128 77.78,0 174.87,54.118 215.75,120.262 40.88,66.143 29.69,92.674 -24.87,58.956 -54.55,-33.718 -167.27,-18.241 -250.47,34.394 -125.49,79.385 -120.2,95.969 31.02,97.293 100.26,0.834 182.29,71.908 182.29,157.845 0,85.938 35.16,159.734 78.13,163.991 42.96,4.261 186.44,27.837 318.84,52.397 143.8,26.68 214.72,2.59 176.14,-59.823 -35.51,-57.465 -9.92,-104.481 56.89,-104.481 67.96,0 93.61,72.578 58.23,164.774 -34.78,90.62 -63.23,183.21 -63.23,205.75 0,22.54 -128.91,-8.39 -286.46,-68.74 -302.61,-115.92 -1526.21,-144.27 -1696.06,-39.3 -55.02,34.01 -182.24,80.66 -282.71,103.68 -100.48,23.02 -440.5,113.56 -755.61,201.19 -722.87,201.05 -1806.85,213.19 -1965.51,22.02 -63.8,-76.89 -85.17,-170.64 -47.47,-208.33 114.76,-114.77 -681.22,-73.12 -1997.44,104.51 -1527.93,206.19 -5468.75,312.22 -5468.75,147.12 0,-194.96 -511.98,-120.69 -740.02,107.34 -161.85,161.85 -203.4,298.09 -158.85,520.84 49.76,248.79 25.35,301.65 -139.25,301.65 -109.77,0 -229.03,-47.64 -265.01,-105.87 z m 3328.55,-1133.85 c 278.98,-66.03 241.35,-90.11 -416.66,-266.602 -397.84,-106.707 -926.45,-280.19 -1174.69,-385.515 -248.23,-105.326 -467.79,-191.501 -487.89,-191.501 -81.96,0 73.49,575.541 164.12,607.639 53.92,19.098 98.04,98.159 98.04,175.689 0,226.05 979.48,258.55 1817.08,60.29 z m 4443.99,-126.56 c 584.02,-125.245 926.43,-390.236 926.43,-716.95 0,-212.927 -38.45,-230.716 -395.27,-182.855 -217.4,29.159 -697.87,179.434 -1067.71,333.944 -369.84,154.51 -902.06,345.359 -1182.72,424.108 -280.66,78.743 -561.91,198.303 -625,265.683 -133.63,142.7 1504.92,56.08 2344.27,-123.93 z m -10404.62,-1414.413 c -90.49,-34.747 -32.1,-154.456 182.29,-373.742 173.48,-177.442 315.42,-388.521 315.42,-469.066 0,-168.597 326.37,-786.604 442.71,-838.311 146.84,-65.261 78.42,-190.972 -104.17,-191.401 -198.94,-0.417 -434.14,249.748 -439.39,467.448 -1.83,75.438 -110.55,286.375 -241.62,468.751 -131.07,182.375 -287.51,474.534 -347.65,649.242 -98.63,286.509 -88.03,318.657 108.1,327.925 119.59,5.656 157.53,-12.729 84.31,-40.846 z m 1672.65,-765.111 c -30.56,-116.856 -78.84,-189.191 -107.29,-160.743 -56.35,56.353 43.19,373.208 117.25,373.208 25.08,0 20.59,-95.61 -9.96,-212.465 z m -706.19,-1350.036 c 35.41,-57.292 14.74,-104.167 -45.94,-104.167 -60.67,0 -110.31,46.875 -110.31,104.167 0,57.291 20.67,104.166 45.94,104.166 25.26,0 74.9,-46.875 110.31,-104.166 z m -677.08,-1295.937 c 0,-109.946 -199.91,-156.136 -259.37,-59.93 -35.99,58.226 7.65,105.866 96.97,105.866 89.32,0 162.4,-20.671 162.4,-45.936 z m -3063.51,5944.377 c 30.23,-78.78 178.26,-143.23 328.95,-143.23 258,0 262.56,8.36 78.11,143.23 -107.73,78.78 -255.76,143.23 -328.95,143.23 -73.19,0 -108.33,-64.45 -78.11,-143.23 z m 20359.89,-111.52 c -71.03,-85.59 -335.44,-285.94 -587.57,-445.23 -252.14,-159.28 -458.51,-334.14 -458.61,-388.56 -0.11,-54.43 56.06,-42.71 124.81,26.04 68.75,68.75 218.33,125 332.41,125 204.74,0 204.8,-1.97 5.21,-152.94 -179.78,-135.97 -182.35,-153.3 -23.18,-156.25 115.73,-2.14 157.83,-58.55 119.06,-159.561 -84.68,-220.68 36.49,-193.904 305.23,67.451 192.04,186.75 198.48,212.54 39.02,156.18 -127.66,-45.14 -176.44,-24.33 -147.1,62.76 24.14,71.65 -24.64,180.77 -108.39,242.49 -125.32,92.36 -95.99,135.54 165.67,243.92 174.86,72.43 345.84,204.42 379.95,293.31 86.51,225.44 7.8,271.32 -146.51,85.39 z m -19690.62,-135.88 c 0.83,-42.96 47.03,-148.43 102.57,-234.37 87.33,-135.14 101.19,-132.8 102.57,17.36 0.83,95.49 60.19,197.26 131.8,226.15 71.62,28.9 24.74,56.24 -104.16,60.77 -128.91,4.52 -233.66,-26.94 -232.78,-69.91 z m 3540.07,-13.74 c 0,-57.29 46.88,-133.14 104.17,-168.55 57.29,-35.41 104.16,-17.5 104.16,39.79 0,57.29 -46.87,133.14 -104.16,168.55 -57.29,35.4 -104.17,17.5 -104.17,-39.79 z m -3750,-324.8 c 0,-57.29 49.64,-104.16 110.31,-104.16 60.68,0 81.35,46.87 45.94,104.16 -35.41,57.29 -85.05,104.17 -110.32,104.17 -25.26,0 -45.93,-46.88 -45.93,-104.17 z m 19791.68,-120.31 c 0,-217.88 6.13,-218.93 208.33,-35.94 114.59,103.7 208.34,204.71 208.34,224.48 0,19.77 -93.75,35.94 -208.34,35.94 -143.88,0 -208.33,-69.45 -208.33,-224.48 z m -16406.26,16.15 c 35.41,-57.3 85.05,-104.17 110.31,-104.17 25.27,0 45.94,46.87 45.94,104.17 0,57.29 -49.64,104.16 -110.32,104.16 -60.67,0 -81.34,-46.87 -45.93,-104.16 z m 16766.56,-111.1 c -112.11,-181.4 15.58,-219.82 158.44,-47.67 82.17,99 90.07,158.77 21,158.77 -60.93,0 -141.67,-50 -179.44,-111.1 z m -21333.45,-362.96 c 31.86,-83.019 6.03,-150.944 -57.39,-150.944 -63.42,0 -115.31,-52.615 -115.31,-116.921 0,-83.738 41.96,-82.099 147.84,5.781 116.68,96.832 173.23,83.052 268.28,-65.371 115.41,-180.213 117.94,-180.098 60.5,2.74 -32.98,104.946 -59.95,228.837 -59.95,275.314 0,46.471 -67.93,110.571 -150.95,142.421 -100.89,38.72 -131.73,7.87 -93.02,-93.02 z m 21128.52,-152.376 c -39.64,-64.128 -41.38,-147.276 -3.89,-184.774 37.5,-37.498 111.79,0.73 165.09,85.056 53.3,84.278 97.62,110.049 98.5,57.268 0.83,-52.78 -80.44,-188.507 -180.7,-301.615 -177.19,-199.895 -175.55,-202.115 58.37,-79.299 132.36,69.493 226.11,201.336 208.33,292.984 -40.26,207.533 -249.3,286.366 -345.71,130.38 z m -1665.05,-101.542 c -36.49,-59.048 5.32,-76.511 98.02,-40.939 180.46,69.249 213.48,143.913 63.64,143.913 -53.91,0 -126.66,-46.339 -161.66,-102.974 z m 207.6,-209.527 c -35.41,-57.291 -14.74,-104.166 45.93,-104.166 60.67,0 110.32,46.875 110.32,104.166 0,57.292 -20.67,104.167 -45.94,104.167 -25.26,0 -74.91,-46.875 -110.31,-104.167 z m 1614.58,-312.5 c 0,-57.292 44.11,-104.167 98.02,-104.167 53.91,0 126.99,46.875 162.4,104.167 35.41,57.292 -8.7,104.167 -98.02,104.167 -89.32,0 -162.4,-46.875 -162.4,-104.167 z m -20729.18,-91.872 c 0,-57.291 46.87,-133.136 104.16,-168.545 57.3,-35.408 104.17,-17.503 104.17,39.789 0,57.292 -46.87,133.136 -104.17,168.545 -57.29,35.408 -104.16,17.503 -104.16,-39.789 z m 18626.31,20.715 c 75.2,-30.091 165.04,-26.391 199.66,8.219 34.61,34.613 -26.91,59.233 -136.72,54.71 -121.35,-5 -146.03,-29.681 -62.94,-62.933 z m 1790.37,-33.01 c 0,-57.291 46.88,-104.166 104.17,-104.166 57.29,0 104.16,46.875 104.16,104.166 0,57.292 -46.87,104.167 -104.16,104.167 -57.29,0 -104.17,-46.875 -104.17,-104.167 z m 476.37,-93.273 c -172.17,-67.443 -177.1,-87.694 -34.67,-142.351 96.27,-36.939 190.2,-0.833 223.49,85.951 31.59,82.32 47.19,146.379 34.67,142.352 -12.53,-4.032 -113.1,-42.705 -223.49,-85.952 z m -3653.46,-115.06 c -35.4,-57.292 -14.73,-104.167 45.94,-104.167 60.67,0 110.31,46.875 110.31,104.167 0,57.292 -20.67,104.167 -45.93,104.167 -25.27,0 -74.91,-46.875 -110.32,-104.167 z m 416.67,0 c 35.41,-57.292 85.05,-104.167 110.32,-104.167 25.26,0 45.93,46.875 45.93,104.167 0,57.292 -49.64,104.167 -110.31,104.167 -60.68,0 -81.35,-46.875 -45.94,-104.167 z M 11697.704,29678 c -138.89,-98.224 -138.89,-105.722 0,-67.482 97.18,26.758 206.08,-74.653 288.06,-268.249 174.13,-411.213 264.84,-308.47 103.96,117.749 -137.68,364.741 -163.89,379.317 -392.02,217.982 z m -4791.6703,-198.809 c 0,-57.292 49.64,-104.167 110.31,-104.167 60.68,0 81.35,46.875 45.94,104.167 -35.41,57.292 -85.05,104.167 -110.31,104.167 -25.27,0 -45.94,-46.875 -45.94,-104.167 z m 4138.2203,-423.289 c 28.67,-109.652 93.68,-173.692 144.46,-142.309 137.11,84.742 111.88,223.305 -52.14,286.243 -101.14,38.811 -128.82,-4.354 -92.32,-143.934 z m 28.45,-423.066 c 0,-115.831 217.79,-114.966 401.75,1.594 99.74,63.199 61.42,89.551 -130.21,89.551 -149.35,0 -271.54,-41.015 -271.54,-91.146 z m -625,-605.831 c 0,-53.911 46.34,-126.659 102.97,-161.661 59.05,-36.494 76.51,5.323 40.94,98.019 -69.25,180.46 -143.91,213.478 -143.91,63.642 z m 9791.67,-100.925 c 0,-90.9 909.51,-72.111 1002.32,20.706 22.54,22.534 -193.77,49.28 -480.67,59.434 -286.91,10.155 -521.65,-25.908 -521.65,-80.14 z m 494.8,-330.234 c -201.69,-117.474 -245.08,-304.157 -70.69,-304.157 61.39,0 178.57,66.965 260.42,148.81 263.87,263.869 152.77,354.836 -189.73,155.347 z m -2578.13,-487.592 c 0,-169.207 280.49,-351.559 700.17,-455.203 216.47,-53.458 510.77,-125.723 654,-160.588 579.96,-141.177 2534.18,-21.515 3149.49,192.851 364.92,127.134 573.74,355.369 443.91,485.196 -31.53,31.536 -395.92,-26.08 -809.74,-128.033 -663.46,-163.457 -918.65,-172.349 -2158.66,-75.223 -773.44,60.581 -1535.16,140.388 -1692.71,177.351 -165.47,38.82 -286.46,23.467 -286.46,-36.351 z m 1021.9,-2576.984 c 49.99,-428.256 219.06,-464.582 725.41,-155.86 400.54,244.206 648.52,267.139 648.52,59.971 0,-81.386 139.58,-178.63 310.16,-216.096 609.28,-133.821 1003.73,210.546 497.14,434.017 -246.18,108.595 -1135.79,106.704 -1731,-3.677 -303.09,-56.207 -333.23,-43.886 -221.63,90.588 106.98,128.895 94.78,155.642 -70.99,155.642 -167.44,0 -193.21,-59.633 -157.61,-364.584 z m 2258.7,261.476 c 40.48,-65.497 98.5,-94.18 128.95,-63.737 30.44,30.442 148.35,5.573 262.03,-55.269 161.33,-86.336 196.57,-79.816 160.57,29.707 -25.37,77.178 -176.41,155.637 -335.64,174.354 -196.76,23.128 -265.93,-4.125 -215.91,-85.055 z m 1588.59,-1988.907 c -129.68,-75.525 -164.28,-180.667 -118.91,-361.416 39.05,-155.592 18.99,-254.905 -51.48,-254.905 -113.75,0 -156.41,135.214 -123.24,390.626 22.35,172.122 -114.11,164.752 -362.94,-19.601 -199.81,-148.039 -199.74,-151.754 6.14,-314.232 655.18,-517.084 1715.9,-602.011 2316.99,-185.509 157.95,109.44 369.21,228.576 469.47,264.747 314.36,113.411 201.96,231.705 -394.75,415.45 -641.32,197.478 -1461.1,228.004 -1741.27,64.84 z m -5337.94,-71.04 c -57.29,-42.092 -104.17,-142.936 -104.17,-224.1 0,-81.163 -58.59,-167.1 -130.21,-190.972 -71.61,-23.872 -130.2,10.146 -130.2,75.592 0,65.448 58.59,85.914 130.2,45.482 94.03,-53.088 99.46,-39.963 19.53,47.239 -110.59,120.663 -779.19,53.687 -770.33,-77.167 2.43,-35.808 178.21,-179.794 390.63,-319.971 541.1,-357.081 1491.5,-368.793 1974.76,-24.337 186.2,132.718 338.54,283.786 338.54,335.705 0,292.183 -1403.95,563.807 -1718.75,332.529 z m 1389.46,-961.948 c -188.17,-171.875 -386.38,-312.5 -440.45,-312.5 -54.08,0 -72.13,-26.183 -40.13,-58.185 117.79,-117.789 781.06,249.256 837,463.186 74.67,285.535 50.66,279.303 -356.42,-92.501 z m 2959.5,52.518 c -303,-344.149 4.83,-828.404 457.68,-719.964 163.64,39.188 344.4,99.332 401.7,133.656 57.29,34.324 434.17,62.999 837.51,63.723 533.35,0.938 812.8,53.301 1024.66,191.932 160.23,104.838 272.46,209.472 249.42,232.519 -23.05,23.047 -366.51,-50.926 -763.26,-164.385 -786.21,-224.835 -1191.21,-171.225 -1700.92,225.15 -293.77,228.446 -335.83,231.549 -506.79,37.369 z m 475.26,-254.341 c 26.04,-78.125 -13.02,-117.187 -91.14,-91.146 -75.2,25.065 -157.23,107.096 -182.3,182.292 -26.04,78.125 13.02,117.188 91.15,91.146 75.19,-25.065 157.23,-107.097 182.29,-182.292 z m -2975.26,143.631 c -71.62,-77.742 -130.21,-188.731 -130.21,-246.642 0,-57.912 -70.84,-78.109 -157.43,-44.881 -112.65,43.228 -139.11,12.667 -93.02,-107.437 93.16,-242.783 181.32,-208.837 394.39,151.864 203.88,345.138 196.64,475.46 -13.73,247.096 z m -2507.9,-108.76 c 93.35,-93.351 219.67,-152.57 280.72,-131.597 61.05,20.973 -15.33,97.351 -169.73,169.73 -259.44,121.62 -267.86,118.73 -110.99,-38.133 z m -1863.66,-1629.924 c 49.24,-308.039 -18.81,-359.634 -215.25,-163.195 -67.8,67.796 -155.78,90.749 -195.52,51.007 -39.74,-39.741 6.96,-130.366 103.78,-201.388 110.46,-81.028 193.1,-323.156 221.84,-649.967 25.19,-286.458 50.1,-520.833 55.36,-520.833 5.26,0 27.87,-452.438 50.25,-1005.417 53.77,-1328.561 177.46,-1756.19 599.52,-2072.792 187.07,-140.32 387.15,-256.019 444.64,-257.11 57.48,-1.093 291.86,-92.48 520.83,-203.087 228.97,-110.608 481.56,-212.012 561.3,-225.344 79.74,-13.332 345.21,-168.036 589.94,-343.788 244.73,-175.752 509.11,-319.549 587.51,-319.549 79.59,0 152.8,-123.933 165.77,-280.623 26.18,-316.372 187.93,-458.36 420.48,-369.122 97.53,37.428 129.97,16.832 85.87,-54.523 -161.87,-261.919 130.17,-200.592 454.22,95.383 363.63,332.119 1002.61,608.885 1405.77,608.885 675.71,0 3541.02,1544.451 3678.27,1982.655 31.36,100.115 -37.85,76.935 -200.81,-67.259 -358.46,-317.165 -2204.5,-1172.255 -2812.09,-1302.558 -407.41,-87.375 -554.01,-81.269 -689.69,28.726 -103.14,83.623 -142.69,90.315 -98.52,16.676 40.58,-67.656 29.38,-150.452 -24.89,-183.991 -54.27,-33.54 -128.11,-13.341 -164.1,44.885 -35.98,58.227 -135.74,105.866 -221.67,105.866 -85.94,0 -127.28,-46.875 -91.88,-104.167 35.41,-57.291 -11.46,-104.166 -104.16,-104.166 -92.7,0 -139.58,46.875 -104.17,104.166 35.41,57.292 17.5,104.167 -39.79,104.167 -57.29,0 -132.39,-45.678 -166.9,-101.507 -169.63,-274.466 -1659.07,165.206 -2516.41,742.826 -1208.99,814.545 -2113.57,2540.173 -2121.01,4046.185 -1.55,315.105 -52.66,643.23 -113.56,729.167 -86.55,122.132 -100.73,93.698 -64.93,-130.208 z m 4501.77,-6015.63 c 200.86,-86.312 200.14,-89.787 -19.9,-96.845 -125.52,-4.031 -257.19,39.553 -292.6,96.845 -76.15,123.206 25.78,123.206 312.5,0 z m -677.09,-376.879 c 0,-85.937 -46.87,-127.28 -104.16,-91.871 -57.3,35.408 -104.17,134.69 -104.17,220.628 0,85.937 46.87,127.28 104.17,91.872 57.29,-35.409 104.16,-134.691 104.16,-220.629 z m -3423,-2334.922 c -135.25,-112.677 -201.11,-204.868 -146.35,-204.868 54.76,0 184.4,93.75 288.1,208.333 238.22,263.227 176.57,261.719 -141.75,-3.468 z m -901.51,-482.343 c -305.36,-466.035 -1006.05,-1180.86 -1157.51,-1180.86 -78.64,0 -142.98,-83.332 -142.98,-185.183 0,-101.851 -82.67,-254.195 -183.7,-338.542 -101.04,-84.347 -339.01,-282.265 -528.83,-439.817 -189.82,-157.552 -454.59,-286.459 -588.38,-286.459 -193.37,0 -237.75,-50.095 -216.43,-244.34 18.6,-169.371 -62.58,-304.431 -264.57,-440.187 -160.27,-107.715 -348.45,-302.449 -418.18,-432.743 -69.73,-130.294 -224.33,-237.615 -343.56,-238.493 -171.45,-1.261 -185.31,-21.501 -66.27,-96.812 179.9,-113.819 528.04,115.545 1358.64,895.105 666.51,625.558 1147.11,1014.933 1147.11,929.373 0,-32.937 164.06,114.052 364.59,326.641 200.52,212.59 364.58,439.693 364.58,504.673 0,64.979 154.21,201.19 342.68,302.69 403.52,217.313 825.91,813.58 738.22,1042.111 -88.47,230.543 -198.41,198.773 -405.41,-117.157 z m 53.68,-243.359 c 0,-57.292 -49.65,-104.167 -110.32,-104.167 -60.67,0 -81.34,46.875 -45.93,104.167 35.4,57.292 85.05,104.167 110.31,104.167 25.27,0 45.94,-46.875 45.94,-104.167 z m -4436.99,-4389.759 c -197.73,-222.297 -197.6,-222.578 35.94,-79.11 128.91,79.189 234.38,179.579 234.38,223.089 0,125.597 -58.02,94.697 -270.32,-143.979 z M 8754.9937,5556.92 c -272.14,-80.604 -494.79,-197.477 -494.79,-259.717 0,-68.143 93.24,-85.997 234.37,-44.877 128.91,37.558 386.72,96.033 572.92,129.945 320.98,58.461 432.06,176.113 260.42,275.82 -42.97,24.96 -300.78,-20.567 -572.92,-101.171 z M 46536.504,5245.21 c -443.47,-478.513 -264.85,-543.034 291.44,-105.273 201.19,158.328 243.94,380.901 73.15,380.901 -60.03,0 -224.09,-124.032 -364.59,-275.628 z m -38920.8303,-3.863 c 75.19,-30.091 165.04,-26.39 199.65,8.224 34.61,34.613 -26.91,59.233 -136.72,54.71 -121.35,-4.998 -146.03,-29.681 -62.93,-62.934 z M 45409.134,4008.01 c -49.67,-129.444 -22.95,-138.36 145.11,-48.419 241.46,129.229 264.35,207.079 60.88,207.079 -79.81,0 -172.5,-71.397 -205.99,-158.66 z M 4015.4037,3532.885 c -255.91,-96.815 -310.46,-200.481 -104.16,-197.954 165.41,2.026 452.6,180.602 387.6,241.016 -26.98,25.083 -154.53,5.706 -283.44,-43.062 z M 2189.8737,2405.73 c -190.14,-109.286 -314.92,-129.456 -364.58,-58.938 -102.03,144.856 -382.89,112.516 -1065.09999,-122.644 -853.559998,-294.225 -884.65,-326.24 -596.57,-614.316 250.67,-250.672 633.36,-949.644 753.06,-1375.457 C 977.40371,18.379 1042.9937,0 1753.1337,0 c 663.96,0 785.99,28.824 882.06,208.334 61.33,114.583 177,208.333 257.07,208.333 80.06,0 175.33,93.8 211.72,208.444 79.36,250.034 468.71,495.272 468.71,295.221 0,-101.747 27.06,-101.607 129.34,0.673 170.61,170.607 -32.09,300.325 -604.63,386.944 -252.33,38.175 -473.5,144.55 -547.76,263.456 -97.9,156.766 -96.5,200.03 6.55,202.232 72.1,1.542 295.15,144.017 495.67,316.613 l 364.58,313.811 -401.69,-159.671 c -436.19,-173.385 -670.19,-125.318 -483.72,99.362 175.83,211.865 -18.84,247.23 -341.16,61.978 z"
     id="path13021"
     inkscape:connector-curvature="0" />
  <path
     style="font-style:normal;font-weight:normal;font-size:4166.66992188px;line-height:1.25;font-family:sans-serif;letter-spacing:0px;word-spacing:0px;fill:#000000;fill-opacity:1;stroke:none;stroke-width:104.16674805"
     d="m 33332.634,10274.938 c 39.117,-384.013 -190.245,-878.271 -624.228,-888.391 -381.653,-16.228 -621.815,365.378 -644.284,708.032 -38.796,337.135 1.797,728.842 294.154,948.791 310.047,269.286 828.998,51.302 913.237,-335.287 44.828,-139.607 60.58,-287.027 61.121,-433.145 z m -1273.601,-795.493 c 299.393,-586.339 1286.565,-506.164 1510.248,105.938 269.982,562.93 206.338,1338.388 -302.38,1746.853 -361.138,172.838 -760.821,-30.099 -1104.883,-156.71 -244.113,-169.384 61.19,320.195 -246.63,243.051 -299.638,79.401 -245.468,-284.696 -232.739,-475.933 0,-898.704 0,-1797.407 0,-2696.11 120.151,79.864 360.767,155.702 376.384,123.74 0,369.724 0,739.448 0,1109.171 z m 2244.061,1033.53 c 0,-459.799 0,-919.597 0,-1379.396 241.462,-67.775 525.975,52.709 380.641,339.464 45.615,506.92 -145.787,1064.278 138.759,1528.082 350.661,358.949 1030.714,21.713 1006.833,-464.632 18.186,-467.459 2.538,-935.293 7.785,-1402.914 118.908,80.414 359.447,156.409 374.35,123.74 0,718.303 0,1436.605 0,2154.908 -119.731,-89.012 -359.517,-141.804 -374.951,-132.743 44.139,-168.025 -43.897,-266.474 -111.742,-64.874 -367.499,422.576 -1214.978,320.362 -1361.98,-258.424 -45.207,-143 -59.088,-293.876 -59.695,-443.211 z m 4182.946,-266.52 c 48.723,-392.707 -221.792,-893.465 -665.871,-859.704 -383.779,4.127 -602.9,401.246 -611.725,745.033 -29.236,311.63 29.356,665.174 302.023,859.28 329.16,270.384 869.229,29.465 932.688,-381.23 31.471,-118.318 43.175,-241.194 42.885,-363.379 z m 374.349,882.976 c 40.483,465.713 -206.635,1033.977 -712.102,1116.278 -320.106,8.93 -681.916,108.236 -970.199,-74.614 -218.498,-184.013 -31.648,-403.809 205.07,-304.26 298.164,46.805 671.106,168.257 626.134,156.598 -357.204,-78.806 267.827,-66.23 313.194,-281.688 144.816,-181.284 208.936,-440.609 144.331,-662.28 -218.527,-102.993 -502.52,445.43 -535.074,320.77 -486.218,105.946 -994.668,-264.752 -1060.594,-755.001 -133.842,-529.714 -22.234,-1228.787 516.962,-1488.525 355.813,-163.17 853.123,-82.671 1058.867,275.202 -0.516,-218.859 148.57,-461.378 371.183,-246.268 138.836,209.441 39.269,359.157 42.228,524.931 0,472.952 0,945.904 0,1418.857 z"
     id="text13045"
     inkscape:connector-curvature="0" />
</svg>
