G04 #@! TF.GenerationSoftware,KiCad,Pcbnew,5.0.2-bee76a0~70~ubuntu18.04.1*
G04 #@! TF.CreationDate,2019-11-02T18:35:41-04:00*
G04 #@! TF.ProjectId,ib4,6962342e-6b69-4636-9164-5f7063625858,rev?*
G04 #@! TF.SameCoordinates,Original*
G04 #@! TF.FileFunction,Copper,L4,Bot*
G04 #@! TF.FilePolarity,Positive*
%FSLAX46Y46*%
G04 Gerber Fmt 4.6, Leading zero omitted, Abs format (unit mm)*
G04 Created by KiCad (PCBNEW 5.0.2-bee76a0~70~ubuntu18.04.1) date Sat 02 Nov 2019 06:35:41 PM EDT*
%MOMM*%
%LPD*%
G01*
G04 APERTURE LIST*
G04 #@! TA.AperFunction,ComponentPad*
%ADD10C,1.676400*%
G04 #@! TD*
G04 #@! TA.AperFunction,ComponentPad*
%ADD11O,1.700000X1.700000*%
G04 #@! TD*
G04 #@! TA.AperFunction,ComponentPad*
%ADD12R,1.700000X1.700000*%
G04 #@! TD*
G04 #@! TA.AperFunction,ComponentPad*
%ADD13C,2.400000*%
G04 #@! TD*
G04 #@! TA.AperFunction,ComponentPad*
%ADD14R,2.400000X2.400000*%
G04 #@! TD*
G04 #@! TA.AperFunction,ComponentPad*
%ADD15C,1.600000*%
G04 #@! TD*
G04 #@! TA.AperFunction,ComponentPad*
%ADD16O,1.600000X1.600000*%
G04 #@! TD*
G04 #@! TA.AperFunction,ViaPad*
%ADD17C,3.000000*%
G04 #@! TD*
G04 #@! TA.AperFunction,Conductor*
%ADD18C,1.700000*%
G04 #@! TD*
G04 APERTURE END LIST*
D10*
G04 #@! TO.P,JP2,1*
G04 #@! TO.N,N/C*
X61764300Y17607900D03*
G04 #@! TO.P,JP2,2*
G04 #@! TO.N,GND*
X61764300Y20147900D03*
G04 #@! TO.P,JP2,3*
G04 #@! TO.N,N/C*
X61764300Y22687900D03*
G04 #@! TO.P,JP2,4*
X61764300Y25227900D03*
G04 #@! TO.P,JP2,5*
G04 #@! TO.N,D12*
X61764300Y27767900D03*
G04 #@! TO.P,JP2,6*
G04 #@! TO.N,N/C*
X61764300Y30307900D03*
G04 #@! TO.P,JP2,7*
X61764300Y32847900D03*
G04 #@! TO.P,JP2,8*
X61764300Y35387900D03*
G04 #@! TO.P,JP2,9*
X61764300Y37927900D03*
G04 #@! TO.P,JP2,10*
X61764300Y40467900D03*
G04 #@! TO.P,JP2,11*
G04 #@! TO.N,SCL*
X61764300Y43007900D03*
G04 #@! TO.P,JP2,12*
G04 #@! TO.N,SDA*
X61764300Y45547900D03*
G04 #@! TO.P,JP2,13*
G04 #@! TO.N,N/C*
X61764300Y48087900D03*
G04 #@! TO.P,JP2,14*
X61764300Y50627900D03*
G04 #@! TD*
G04 #@! TO.P,JP4,1*
G04 #@! TO.N,N/C*
X77004300Y50627900D03*
G04 #@! TO.P,JP4,2*
G04 #@! TO.N,MISO*
X77004300Y48087900D03*
G04 #@! TO.P,JP4,3*
G04 #@! TO.N,MOSI*
X77004300Y45547900D03*
G04 #@! TO.P,JP4,4*
G04 #@! TO.N,SCK*
X77004300Y43007900D03*
G04 #@! TO.P,JP4,5*
G04 #@! TO.N,LORA_CS*
X77004300Y40467900D03*
G04 #@! TO.P,JP4,6*
G04 #@! TO.N,LORA_RST*
X77004300Y37927900D03*
G04 #@! TO.P,JP4,7*
G04 #@! TO.N,N/C*
X77004300Y35387900D03*
G04 #@! TO.P,JP4,8*
X77004300Y32847900D03*
G04 #@! TO.P,JP4,9*
X77004300Y30307900D03*
G04 #@! TO.P,JP4,10*
X77004300Y27767900D03*
G04 #@! TO.P,JP4,11*
X77004300Y25227900D03*
G04 #@! TO.P,JP4,12*
X77004300Y22687900D03*
G04 #@! TO.P,JP4,13*
G04 #@! TO.N,+3V3*
X77004300Y20147900D03*
G04 #@! TO.P,JP4,14*
G04 #@! TO.N,TIMER*
X77004300Y17607900D03*
G04 #@! TD*
D11*
G04 #@! TO.P,J1,2*
G04 #@! TO.N,GND*
X52470500Y42673300D03*
D12*
G04 #@! TO.P,J1,1*
G04 #@! TO.N,Net-(J1-Pad1)*
X52470500Y40133300D03*
G04 #@! TD*
D13*
G04 #@! TO.P,J6,3*
G04 #@! TO.N,+3V3*
X18720500Y12333300D03*
G04 #@! TO.P,J6,2*
G04 #@! TO.N,D12*
X18720500Y15833300D03*
D14*
G04 #@! TO.P,J6,1*
G04 #@! TO.N,GND*
X18720500Y19333300D03*
G04 #@! TD*
G04 #@! TO.P,J7,1*
G04 #@! TO.N,GND*
X18420500Y35433300D03*
D13*
G04 #@! TO.P,J7,2*
G04 #@! TO.N,D12*
X18420500Y31933300D03*
G04 #@! TO.P,J7,3*
G04 #@! TO.N,+3V3*
X18420500Y28433300D03*
G04 #@! TD*
G04 #@! TO.P,J8,3*
G04 #@! TO.N,+3V3*
X18520500Y43733300D03*
G04 #@! TO.P,J8,2*
G04 #@! TO.N,D12*
X18520500Y47233300D03*
D14*
G04 #@! TO.P,J8,1*
G04 #@! TO.N,GND*
X18520500Y50733300D03*
G04 #@! TD*
D15*
G04 #@! TO.P,R3,1*
G04 #@! TO.N,+3V3*
X32720500Y23783300D03*
D16*
G04 #@! TO.P,R3,2*
G04 #@! TO.N,D12*
X32720500Y28863300D03*
G04 #@! TD*
D11*
G04 #@! TO.P,U2,5*
G04 #@! TO.N,N/C*
X32220500Y37873300D03*
G04 #@! TO.P,U2,4*
G04 #@! TO.N,TIMER*
X32220500Y40413300D03*
G04 #@! TO.P,U2,3*
G04 #@! TO.N,Net-(J1-Pad1)*
X32220500Y42953300D03*
G04 #@! TO.P,U2,2*
G04 #@! TO.N,GND*
X32220500Y45493300D03*
D12*
G04 #@! TO.P,U2,1*
G04 #@! TO.N,+3V3*
X32220500Y48033300D03*
G04 #@! TD*
D11*
G04 #@! TO.P,U3,9*
G04 #@! TO.N,LORA_RST*
X85770500Y39263300D03*
G04 #@! TO.P,U3,8*
G04 #@! TO.N,LORA_CS*
X85770500Y41803300D03*
G04 #@! TO.P,U3,7*
G04 #@! TO.N,MOSI*
X85770500Y44343300D03*
G04 #@! TO.P,U3,6*
G04 #@! TO.N,MISO*
X85770500Y46883300D03*
G04 #@! TO.P,U3,5*
G04 #@! TO.N,SCK*
X85770500Y49423300D03*
G04 #@! TO.P,U3,4*
G04 #@! TO.N,N/C*
X85770500Y51963300D03*
G04 #@! TO.P,U3,3*
X85770500Y54503300D03*
G04 #@! TO.P,U3,2*
G04 #@! TO.N,GND*
X85770500Y57043300D03*
D12*
G04 #@! TO.P,U3,1*
G04 #@! TO.N,+3V3*
X85770500Y59583300D03*
G04 #@! TD*
D11*
G04 #@! TO.P,U1,7*
G04 #@! TO.N,N/C*
X49710500Y58333300D03*
G04 #@! TO.P,U1,6*
G04 #@! TO.N,SDA*
X47170500Y58333300D03*
G04 #@! TO.P,U1,5*
G04 #@! TO.N,N/C*
X44630500Y58333300D03*
G04 #@! TO.P,U1,4*
G04 #@! TO.N,SCL*
X42090500Y58333300D03*
G04 #@! TO.P,U1,3*
G04 #@! TO.N,GND*
X39550500Y58333300D03*
G04 #@! TO.P,U1,2*
G04 #@! TO.N,N/C*
X37010500Y58333300D03*
D12*
G04 #@! TO.P,U1,1*
G04 #@! TO.N,+3V3*
X34470500Y58333300D03*
G04 #@! TD*
D17*
G04 #@! TO.N,*
X81420500Y33533300D03*
G04 #@! TO.N,GND*
X25870500Y21133300D03*
X26970500Y10183300D03*
G04 #@! TO.N,+3V3*
X24820500Y43733300D03*
X24570500Y54933300D03*
X59070500Y58433300D03*
X51170500Y48933300D03*
G04 #@! TO.N,D12*
X31970500Y32833300D03*
X25120500Y32283300D03*
G04 #@! TO.N,TIMER*
X41270500Y39433300D03*
X41670500Y25433300D03*
G04 #@! TD*
D18*
G04 #@! TO.N,*
X61700800Y32784400D02*
X61764300Y32847900D01*
X61764300Y17607900D02*
X61764300Y17477100D01*
X77004300Y27767900D02*
X78189693Y27767900D01*
X78189693Y27767900D02*
X78224293Y27733300D01*
X33130499Y37023301D02*
X33070499Y37023301D01*
X33070499Y37023301D02*
X32220500Y37873300D01*
X34220500Y35933300D02*
X33130499Y37023301D01*
X61764300Y37927900D02*
X58315100Y37927900D01*
X56320500Y35933300D02*
X34220500Y35933300D01*
X58315100Y37927900D02*
X56320500Y35933300D01*
X78194293Y35383300D02*
X78720500Y35383300D01*
X78720500Y35383300D02*
X78770500Y35333300D01*
X77004300Y35387900D02*
X78189693Y35387900D01*
X78189693Y35387900D02*
X78194293Y35383300D01*
X79620500Y35333300D02*
X81420500Y33533300D01*
X78770500Y35333300D02*
X79620500Y35333300D01*
X78194293Y35383300D02*
X78920500Y35383300D01*
G04 #@! TO.N,GND*
X29760500Y45493300D02*
X32220500Y45493300D01*
X28320500Y46933300D02*
X29760500Y45493300D01*
X32400500Y45673300D02*
X32220500Y45493300D01*
X27820500Y36233300D02*
X28320500Y35733300D01*
X28320500Y35733300D02*
X28320500Y51533300D01*
X18520500Y50733300D02*
X27120500Y50733300D01*
X27120500Y50733300D02*
X28320500Y49533300D01*
X28320500Y51533300D02*
X28320500Y49533300D01*
X28320500Y49533300D02*
X28320500Y46933300D01*
X27020500Y35433300D02*
X18420500Y35433300D01*
X27820500Y36233300D02*
X27020500Y35433300D01*
X21620500Y19333300D02*
X18720500Y19333300D01*
X27820500Y36233300D02*
X27820500Y34683300D01*
X27820500Y34683300D02*
X28420500Y34083300D01*
X28420500Y34083300D02*
X28420500Y26633300D01*
X21620500Y19833300D02*
X21620500Y19333300D01*
X28420500Y26633300D02*
X28420500Y23683300D01*
X28420500Y23683300D02*
X25870500Y21133300D01*
X24070500Y19333300D02*
X25870500Y21133300D01*
X21620500Y19333300D02*
X24070500Y19333300D01*
X85770500Y57043300D02*
X89630500Y57043300D01*
X37020500Y20233300D02*
X26970500Y10183300D01*
X33952581Y51533300D02*
X28320500Y51533300D01*
X39550500Y58333300D02*
X39550500Y57131219D01*
X39550500Y57131219D02*
X38911541Y56492259D01*
X38911541Y56492259D02*
X33952581Y51533300D01*
X39550500Y61813300D02*
X39550500Y58333300D01*
X89630500Y62823300D02*
X89070500Y63383300D01*
X63620500Y63383300D02*
X61770500Y65233300D01*
X89630500Y57043300D02*
X89630500Y62823300D01*
X89070500Y63383300D02*
X63620500Y63383300D01*
X61770500Y65233300D02*
X42970500Y65233300D01*
X42970500Y65233300D02*
X39550500Y61813300D01*
X61764300Y20147900D02*
X58855900Y20147900D01*
X58855900Y20147900D02*
X52470500Y26533300D01*
X52470500Y26533300D02*
X52470500Y26633300D01*
X52470500Y26633300D02*
X49970500Y29133300D01*
X49970500Y29133300D02*
X39370500Y29133300D01*
X37020500Y26783300D02*
X37020500Y20233300D01*
X39370500Y29133300D02*
X37020500Y26783300D01*
X33422581Y45493300D02*
X33482581Y45433300D01*
X32220500Y45493300D02*
X33422581Y45493300D01*
X33482581Y45433300D02*
X47470500Y45433300D01*
X50230500Y42673300D02*
X52470500Y42673300D01*
X47470500Y45433300D02*
X50230500Y42673300D01*
G04 #@! TO.N,MOSI*
X79105900Y45547900D02*
X77004300Y45547900D01*
X80320500Y44333300D02*
X79105900Y45547900D01*
X84558419Y44333300D02*
X80320500Y44333300D01*
X85770500Y44343300D02*
X84568419Y44343300D01*
X84568419Y44343300D02*
X84558419Y44333300D01*
G04 #@! TO.N,MISO*
X80565900Y48087900D02*
X77004300Y48087900D01*
X81720500Y46933300D02*
X80565900Y48087900D01*
X84518419Y46933300D02*
X81720500Y46933300D01*
X85770500Y46883300D02*
X84568419Y46883300D01*
X84568419Y46883300D02*
X84518419Y46933300D01*
G04 #@! TO.N,SCK*
X75818907Y43007900D02*
X77004300Y43007900D01*
X74020500Y44333300D02*
X75270500Y43083300D01*
X80055438Y54083300D02*
X75520500Y54083300D01*
X75270500Y43083300D02*
X75743507Y43083300D01*
X75520500Y54083300D02*
X74020500Y52583300D01*
X75743507Y43083300D02*
X75818907Y43007900D01*
X74020500Y52583300D02*
X74020500Y44333300D01*
X84715438Y49423300D02*
X80055438Y54083300D01*
X85770500Y49423300D02*
X84715438Y49423300D01*
G04 #@! TO.N,+3V3*
X77318900Y19833300D02*
X77004300Y20147900D01*
X18720500Y12333300D02*
X13320500Y12333300D01*
X13320500Y12333300D02*
X10220500Y15433300D01*
X10220500Y15433300D02*
X10220500Y25833300D01*
X10220500Y25833300D02*
X12920500Y28533300D01*
X13020500Y28433300D02*
X18420500Y28433300D01*
X12920500Y28533300D02*
X13020500Y28433300D01*
X10220500Y25833300D02*
X10220500Y52133300D01*
X10220500Y52133300D02*
X10220500Y53033300D01*
X10220500Y52133300D02*
X10220500Y53233300D01*
X10220500Y53233300D02*
X13020500Y56033300D01*
X18520500Y43733300D02*
X24820500Y43733300D01*
X32720500Y23783300D02*
X32720500Y22383300D01*
X32720500Y22383300D02*
X26570500Y16233300D01*
X26570500Y16233300D02*
X26570500Y15183300D01*
X26570500Y15183300D02*
X23670500Y12283300D01*
X23620500Y12333300D02*
X18720500Y12333300D01*
X23670500Y12283300D02*
X23620500Y12333300D01*
X75605900Y20147900D02*
X77004300Y20147900D01*
X73970500Y37333300D02*
X73970500Y21783300D01*
X71270500Y40033300D02*
X73970500Y37333300D01*
X73970500Y21783300D02*
X75605900Y20147900D01*
X71270500Y55333300D02*
X71270500Y40033300D01*
X75470500Y59533300D02*
X71270500Y55333300D01*
X18720500Y12333300D02*
X18720500Y10636244D01*
X83170500Y59533300D02*
X75470500Y59533300D01*
X85770500Y59583300D02*
X83220500Y59583300D01*
X83220500Y59583300D02*
X83170500Y59533300D01*
X34470500Y58333300D02*
X26920500Y58333300D01*
X32220500Y48033300D02*
X36746584Y48033300D01*
X34470500Y58333300D02*
X34470500Y56633300D01*
X34470500Y56633300D02*
X32570500Y54733300D01*
X13020500Y56033300D02*
X13070500Y56033300D01*
X15370500Y58333300D02*
X26920500Y58333300D01*
X13070500Y56033300D02*
X15370500Y58333300D01*
X32570500Y54733300D02*
X24770500Y54733300D01*
X24770500Y54733300D02*
X24570500Y54933300D01*
X75470500Y59533300D02*
X60170500Y59533300D01*
X60170500Y59533300D02*
X59070500Y58433300D01*
X36746584Y48033300D02*
X50270500Y48033300D01*
X50270500Y48033300D02*
X51170500Y48933300D01*
G04 #@! TO.N,Net-(J1-Pad1)*
X49920500Y40133300D02*
X49620500Y39833300D01*
X52470500Y40133300D02*
X49920500Y40133300D01*
X49620500Y39833300D02*
X45770500Y39833300D01*
X42650500Y42953300D02*
X32220500Y42953300D01*
X45770500Y39833300D02*
X42650500Y42953300D01*
G04 #@! TO.N,D12*
X61700800Y27704400D02*
X61764300Y27767900D01*
X18720500Y15833300D02*
X15420500Y15833300D01*
X15420500Y15833300D02*
X13820500Y17433300D01*
X13820500Y17433300D02*
X13820500Y21233300D01*
X13820500Y21233300D02*
X16420500Y23833300D01*
X16420500Y23833300D02*
X20420500Y23833300D01*
X20420500Y23833300D02*
X22720500Y26133300D01*
X22720500Y26133300D02*
X22720500Y30333300D01*
X22720500Y30333300D02*
X21020500Y32033300D01*
X20920500Y31933300D02*
X18420500Y31933300D01*
X21020500Y32033300D02*
X20920500Y31933300D01*
X14220500Y47233300D02*
X18520500Y47233300D01*
X13220500Y46333300D02*
X13320500Y46333300D01*
X13220500Y34233300D02*
X13220500Y46333300D01*
X18420500Y31933300D02*
X15520500Y31933300D01*
X13320500Y46333300D02*
X14220500Y47233300D01*
X15520500Y31933300D02*
X13220500Y34233300D01*
X22720500Y30333300D02*
X23170500Y30333300D01*
X23170500Y30333300D02*
X25120500Y32283300D01*
X32720500Y32083300D02*
X31970500Y32833300D01*
X32720500Y28863300D02*
X32720500Y32083300D01*
X60578907Y27767900D02*
X60513507Y27833300D01*
X61764300Y27767900D02*
X60578907Y27767900D01*
X32720500Y28863300D02*
X36790500Y32933300D01*
X36790500Y32933300D02*
X54420500Y32933300D01*
X59585900Y27767900D02*
X60578907Y27767900D01*
X54420500Y32933300D02*
X59585900Y27767900D01*
G04 #@! TO.N,TIMER*
X77067800Y17671400D02*
X77004300Y17607900D01*
X33422581Y40413300D02*
X33502581Y40333300D01*
X32220500Y40413300D02*
X33422581Y40413300D01*
X33502581Y40333300D02*
X36920500Y40333300D01*
X76166101Y16769701D02*
X76166101Y16428901D01*
X77004300Y17607900D02*
X76166101Y16769701D01*
X76166101Y16428901D02*
X72670500Y12933300D01*
X72670500Y12933300D02*
X57970500Y12933300D01*
X57970500Y12933300D02*
X48970500Y21933300D01*
X37820500Y39433300D02*
X41270500Y39433300D01*
X36920500Y40333300D02*
X37820500Y39433300D01*
X45170500Y21933300D02*
X41670500Y25433300D01*
X48970500Y21933300D02*
X45170500Y21933300D01*
G04 #@! TO.N,LORA_RST*
X84435100Y37927900D02*
X77004300Y37927900D01*
X85770500Y39263300D02*
X84435100Y37927900D01*
G04 #@! TO.N,LORA_CS*
X77095800Y40559400D02*
X77004300Y40467900D01*
X77004300Y40467900D02*
X82405100Y40467900D01*
X82405100Y40467900D02*
X83740500Y41803300D01*
X83740500Y41803300D02*
X85770500Y41803300D01*
G04 #@! TO.N,SDA*
X47170500Y57131219D02*
X47270500Y57031219D01*
X47170500Y58333300D02*
X47170500Y57131219D01*
X60578907Y45547900D02*
X60564307Y45533300D01*
X61764300Y45547900D02*
X60578907Y45547900D01*
X60564307Y45533300D02*
X60270500Y45533300D01*
X60270500Y45533300D02*
X56670500Y49133300D01*
X56670500Y49133300D02*
X56670500Y49333300D01*
X56670500Y49333300D02*
X51070500Y54933300D01*
X49368419Y54933300D02*
X47170500Y57131219D01*
X51070500Y54933300D02*
X49368419Y54933300D01*
G04 #@! TO.N,SCL*
X42090500Y59535381D02*
X44288419Y61733300D01*
X42090500Y58333300D02*
X42090500Y59535381D01*
X64270500Y54533300D02*
X64270500Y43333300D01*
X63945100Y43007900D02*
X61764300Y43007900D01*
X64270500Y43333300D02*
X63945100Y43007900D01*
X64270500Y54533300D02*
X57370500Y54533300D01*
X53570500Y58333300D02*
X53570500Y61733300D01*
X57370500Y54533300D02*
X53570500Y58333300D01*
X44288419Y61733300D02*
X53570500Y61733300D01*
G04 #@! TD*
M02*
