%TF.GenerationSoftware,KiCad,Pcbnew,5.1.6-c6e7f7d~87~ubuntu18.04.1*%
%TF.CreationDate,2020-11-02T17:54:18-05:00*%
%TF.ProjectId,remote,72656d6f-7465-42e6-9b69-6361645f7063,rev?*%
%TF.SameCoordinates,Original*%
%TF.FileFunction,Copper,L1,Top*%
%TF.FilePolarity,Positive*%
%FSLAX46Y46*%
G04 Gerber Fmt 4.6, Leading zero omitted, Abs format (unit mm)*
G04 Created by KiCad (PCBNEW 5.1.6-c6e7f7d~87~ubuntu18.04.1) date 2020-11-02 17:54:18*
%MOMM*%
%LPD*%
G01*
G04 APERTURE LIST*
%TA.AperFunction,ComponentPad*%
%ADD10O,1.700000X1.700000*%
%TD*%
%TA.AperFunction,ComponentPad*%
%ADD11R,1.700000X1.700000*%
%TD*%
%TA.AperFunction,ComponentPad*%
%ADD12O,1.600000X1.600000*%
%TD*%
%TA.AperFunction,ComponentPad*%
%ADD13C,1.600000*%
%TD*%
%TA.AperFunction,ComponentPad*%
%ADD14C,2.600000*%
%TD*%
%TA.AperFunction,ComponentPad*%
%ADD15R,2.600000X2.600000*%
%TD*%
%TA.AperFunction,ViaPad*%
%ADD16C,0.800000*%
%TD*%
%TA.AperFunction,Conductor*%
%ADD17C,0.508000*%
%TD*%
G04 APERTURE END LIST*
D10*
%TO.P,J9,7*%
%TO.N,N/C*%
X121920000Y-51308000D03*
%TO.P,J9,6*%
%TO.N,SDA*%
X119380000Y-51308000D03*
%TO.P,J9,5*%
%TO.N,N/C*%
X116840000Y-51308000D03*
%TO.P,J9,4*%
%TO.N,SCL*%
X114300000Y-51308000D03*
%TO.P,J9,3*%
%TO.N,GND*%
X111760000Y-51308000D03*
%TO.P,J9,2*%
%TO.N,N/C*%
X109220000Y-51308000D03*
D11*
%TO.P,J9,1*%
%TO.N,+3V3*%
X106680000Y-51308000D03*
%TD*%
D10*
%TO.P,J10,4*%
%TO.N,SDA*%
X95430000Y-63155000D03*
%TO.P,J10,3*%
%TO.N,SCL*%
X95430000Y-65695000D03*
%TO.P,J10,2*%
%TO.N,+3V3*%
X95430000Y-68235000D03*
D11*
%TO.P,J10,1*%
%TO.N,GND*%
X95430000Y-70775000D03*
%TD*%
D12*
%TO.P,R3,2*%
%TO.N,SDA*%
X140535000Y-69525000D03*
D13*
%TO.P,R3,1*%
%TO.N,+3V3*%
X130375000Y-69525000D03*
%TD*%
D12*
%TO.P,R2,2*%
%TO.N,SCL*%
X140660000Y-65850000D03*
D13*
%TO.P,R2,1*%
%TO.N,+3V3*%
X130500000Y-65850000D03*
%TD*%
D12*
%TO.P,R1,2*%
%TO.N,Net-(J1-Pad2)*%
X83891000Y-79688000D03*
D13*
%TO.P,R1,1*%
%TO.N,+3V3*%
X94051000Y-79688000D03*
%TD*%
D14*
%TO.P,J8,2*%
%TO.N,Net-(J5-Pad2)*%
X87376000Y-108563000D03*
D15*
%TO.P,J8,1*%
%TO.N,GND*%
X87376000Y-103563000D03*
%TD*%
D11*
%TO.P,J7,1*%
%TO.N,N/C*%
X124300000Y-99000000D03*
D10*
%TO.P,J7,2*%
%TO.N,+3V3*%
X124300000Y-96460000D03*
%TO.P,J7,3*%
%TO.N,N/C*%
X124300000Y-93920000D03*
%TO.P,J7,4*%
%TO.N,GND*%
X124300000Y-91380000D03*
%TO.P,J7,5*%
%TO.N,N/C*%
X124300000Y-88840000D03*
%TO.P,J7,6*%
X124300000Y-86300000D03*
%TO.P,J7,7*%
X124300000Y-83760000D03*
%TO.P,J7,8*%
X124300000Y-81220000D03*
%TO.P,J7,9*%
X124300000Y-78680000D03*
%TO.P,J7,10*%
X124300000Y-76140000D03*
%TO.P,J7,11*%
X124300000Y-73600000D03*
%TO.P,J7,12*%
X124300000Y-71060000D03*
%TO.P,J7,13*%
X124300000Y-68520000D03*
%TO.P,J7,14*%
X124300000Y-65980000D03*
%TO.P,J7,15*%
X124300000Y-63440000D03*
%TO.P,J7,16*%
X124300000Y-60900000D03*
%TD*%
%TO.P,J6,12*%
%TO.N,Net-(J5-Pad2)*%
X103900000Y-88840000D03*
%TO.P,J6,11*%
%TO.N,N/C*%
X103900000Y-86300000D03*
%TO.P,J6,10*%
X103900000Y-83760000D03*
%TO.P,J6,9*%
X103900000Y-81220000D03*
%TO.P,J6,8*%
%TO.N,Net-(J1-Pad2)*%
X103900000Y-78680000D03*
%TO.P,J6,7*%
%TO.N,N/C*%
X103900000Y-76140000D03*
%TO.P,J6,6*%
X103900000Y-73600000D03*
%TO.P,J6,5*%
X103900000Y-71060000D03*
%TO.P,J6,4*%
X103900000Y-68520000D03*
%TO.P,J6,3*%
X103900000Y-65980000D03*
%TO.P,J6,2*%
%TO.N,SCL*%
X103900000Y-63440000D03*
D11*
%TO.P,J6,1*%
%TO.N,SDA*%
X103900000Y-60900000D03*
%TD*%
D10*
%TO.P,J5,2*%
%TO.N,Net-(J5-Pad2)*%
X95504000Y-107950000D03*
D11*
%TO.P,J5,1*%
%TO.N,GND*%
X95504000Y-105410000D03*
%TD*%
D14*
%TO.P,J4,4*%
%TO.N,GND*%
X87401000Y-73763000D03*
%TO.P,J4,3*%
%TO.N,+3V3*%
X87401000Y-68763000D03*
%TO.P,J4,2*%
%TO.N,SCL*%
X87401000Y-63763000D03*
D15*
%TO.P,J4,1*%
%TO.N,SDA*%
X87401000Y-58763000D03*
%TD*%
D10*
%TO.P,J3,4*%
%TO.N,SDA*%
X139595000Y-59775000D03*
%TO.P,J3,3*%
%TO.N,SCL*%
X137055000Y-59775000D03*
%TO.P,J3,2*%
%TO.N,+3V3*%
X134515000Y-59775000D03*
D11*
%TO.P,J3,1*%
%TO.N,GND*%
X131975000Y-59775000D03*
%TD*%
D14*
%TO.P,J2,3*%
%TO.N,+3V3*%
X87376000Y-95888000D03*
%TO.P,J2,2*%
%TO.N,Net-(J1-Pad2)*%
X87376000Y-90888000D03*
D15*
%TO.P,J2,1*%
%TO.N,GND*%
X87376000Y-85888000D03*
%TD*%
D10*
%TO.P,J1,3*%
%TO.N,+3V3*%
X95504000Y-93630000D03*
%TO.P,J1,2*%
%TO.N,Net-(J1-Pad2)*%
X95504000Y-91090000D03*
D11*
%TO.P,J1,1*%
%TO.N,GND*%
X95504000Y-88550000D03*
%TD*%
D16*
%TO.N,+3V3*%
X113284000Y-60452000D03*
%TO.N,GND*%
X100076000Y-58674000D03*
X101600000Y-92456000D03*
%TO.N,SCL*%
X107950000Y-62992000D03*
X108712000Y-59436000D03*
%TD*%
D17*
%TO.N,+3V3*%
X89634000Y-93630000D02*
X87376000Y-95888000D01*
X95504000Y-93630000D02*
X89634000Y-93630000D01*
X87376000Y-95888000D02*
X81788000Y-90300000D01*
X81788000Y-90300000D02*
X81788000Y-77978000D01*
X81788000Y-77978000D02*
X82550000Y-77216000D01*
X91579000Y-77216000D02*
X94051000Y-79688000D01*
X82550000Y-77216000D02*
X91579000Y-77216000D01*
X87929000Y-68235000D02*
X87401000Y-68763000D01*
X95430000Y-68235000D02*
X87929000Y-68235000D01*
X87401000Y-68763000D02*
X84678000Y-66040000D01*
X84678000Y-66040000D02*
X84678000Y-56292000D01*
X84678000Y-56292000D02*
X85344000Y-55626000D01*
X85344000Y-55626000D02*
X99060000Y-55626000D01*
X103378000Y-51308000D02*
X106680000Y-51308000D01*
X99060000Y-55626000D02*
X103378000Y-51308000D01*
X130500000Y-65850000D02*
X127508000Y-62858000D01*
X127508000Y-62858000D02*
X127508000Y-57912000D01*
X127508000Y-57912000D02*
X121666000Y-57912000D01*
X121666000Y-57912000D02*
X119126000Y-60452000D01*
X119126000Y-60452000D02*
X113284000Y-60452000D01*
X130375000Y-69525000D02*
X130375000Y-92129000D01*
X126044000Y-96460000D02*
X130375000Y-92129000D01*
X124300000Y-96460000D02*
X126044000Y-96460000D01*
X87401000Y-68763000D02*
X84653000Y-68763000D01*
X81788000Y-71628000D02*
X81788000Y-77978000D01*
X84653000Y-68763000D02*
X81788000Y-71628000D01*
%TO.N,Net-(J1-Pad2)*%
X87578000Y-91090000D02*
X87376000Y-90888000D01*
X95504000Y-91090000D02*
X87578000Y-91090000D01*
X83891000Y-87403000D02*
X83891000Y-79688000D01*
X87376000Y-90888000D02*
X83891000Y-87403000D01*
X103900000Y-78680000D02*
X102422000Y-78680000D01*
X102422000Y-78680000D02*
X100076000Y-81026000D01*
X100076000Y-81026000D02*
X100076000Y-89154000D01*
X98140000Y-91090000D02*
X95504000Y-91090000D01*
X100076000Y-89154000D02*
X98140000Y-91090000D01*
%TO.N,GND*%
X89223000Y-105410000D02*
X87376000Y-103563000D01*
X95504000Y-105410000D02*
X89223000Y-105410000D01*
X90038000Y-88550000D02*
X87376000Y-85888000D01*
X95504000Y-88550000D02*
X90038000Y-88550000D01*
X87376000Y-85888000D02*
X91658000Y-85888000D01*
X91658000Y-85888000D02*
X96266000Y-81280000D01*
X96266000Y-81280000D02*
X96266000Y-77978000D01*
X92051000Y-73763000D02*
X87401000Y-73763000D01*
X96266000Y-77978000D02*
X92051000Y-73763000D01*
X92442000Y-73763000D02*
X95430000Y-70775000D01*
X92051000Y-73763000D02*
X92442000Y-73763000D01*
X111760000Y-51308000D02*
X111760000Y-52578000D01*
X111760000Y-52578000D02*
X106934000Y-57404000D01*
X106934000Y-57404000D02*
X101346000Y-57404000D01*
X101346000Y-57404000D02*
X100076000Y-58674000D01*
X101600000Y-92456000D02*
X120650000Y-92456000D01*
X121726000Y-91380000D02*
X124300000Y-91380000D01*
X120650000Y-92456000D02*
X121726000Y-91380000D01*
%TO.N,SDA*%
X95430000Y-63155000D02*
X96865000Y-63155000D01*
X99120000Y-60900000D02*
X103900000Y-60900000D01*
X96865000Y-63155000D02*
X99120000Y-60900000D01*
X91793000Y-63155000D02*
X87401000Y-58763000D01*
X95430000Y-63155000D02*
X91793000Y-63155000D01*
X109788000Y-60900000D02*
X103900000Y-60900000D01*
X119380000Y-51308000D02*
X109788000Y-60900000D01*
%TO.N,SCL*%
X89333000Y-65695000D02*
X87401000Y-63763000D01*
X95430000Y-65695000D02*
X89333000Y-65695000D01*
X103900000Y-63440000D02*
X99628000Y-63440000D01*
X97373000Y-65695000D02*
X95430000Y-65695000D01*
X99628000Y-63440000D02*
X97373000Y-65695000D01*
X103900000Y-63440000D02*
X107502000Y-63440000D01*
X107502000Y-63440000D02*
X107950000Y-62992000D01*
X114300000Y-53848000D02*
X114300000Y-51308000D01*
X108712000Y-59436000D02*
X114300000Y-53848000D01*
%TD*%
M02*
