M48
;DRILL file {KiCad 5.0.2-bee76a0~70~ubuntu18.04.1} date Sat 02 Nov 2019 06:35:52 PM EDT
;FORMAT={-:-/ absolute / metric / decimal}
FMAT,2
METRIC,TZ
T1C0.800
T2C1.000
T3C1.200
T4C1.500
T5C2.700
%
G90
G05
T1
X32.721Y28.863
X32.721Y23.783
T2
X52.47Y42.673
X52.47Y40.133
X77.004Y50.628
X77.004Y48.088
X77.004Y45.548
X77.004Y43.008
X77.004Y40.468
X77.004Y37.928
X77.004Y35.388
X77.004Y32.848
X77.004Y30.308
X77.004Y27.768
X77.004Y25.228
X77.004Y22.688
X77.004Y20.148
X77.004Y17.608
X61.764Y50.628
X61.764Y48.088
X61.764Y45.548
X61.764Y43.008
X61.764Y40.468
X61.764Y37.928
X61.764Y35.388
X61.764Y32.848
X61.764Y30.308
X61.764Y27.768
X61.764Y25.228
X61.764Y22.688
X61.764Y20.148
X61.764Y17.608
X34.471Y58.333
X37.011Y58.333
X39.55Y58.333
X42.09Y58.333
X44.63Y58.333
X47.17Y58.333
X49.71Y58.333
X85.77Y59.583
X85.77Y57.043
X85.77Y54.503
X85.77Y51.963
X85.77Y49.423
X85.77Y46.883
X85.77Y44.343
X85.77Y41.803
X85.77Y39.263
X32.221Y48.033
X32.221Y45.493
X32.221Y42.953
X32.221Y40.413
X32.221Y37.873
T3
X18.72Y19.333
X18.72Y15.833
X18.72Y12.333
X18.52Y50.733
X18.52Y47.233
X18.52Y43.733
X18.421Y35.433
X18.421Y31.933
X18.421Y28.433
T4
X24.57Y54.933
X24.82Y43.733
X25.12Y32.283
X25.87Y21.133
X26.97Y10.183
X31.97Y32.833
X41.27Y39.433
X41.67Y25.433
X51.17Y48.933
X59.07Y58.433
X81.42Y33.533
T5
X8.Y70.75
X90.Y70.75
X8.Y4.75
X90.Y4.75
T0
M30
