%TF.GenerationSoftware,KiCad,Pcbnew,5.1.6-c6e7f7d~87~ubuntu18.04.1*%
%TF.CreationDate,2020-11-02T17:54:18-05:00*%
%TF.ProjectId,remote,72656d6f-7465-42e6-9b69-6361645f7063,rev?*%
%TF.SameCoordinates,Original*%
%TF.FileFunction,Soldermask,Bot*%
%TF.FilePolarity,Negative*%
%FSLAX46Y46*%
G04 Gerber Fmt 4.6, Leading zero omitted, Abs format (unit mm)*
G04 Created by KiCad (PCBNEW 5.1.6-c6e7f7d~87~ubuntu18.04.1) date 2020-11-02 17:54:18*
%MOMM*%
%LPD*%
G01*
G04 APERTURE LIST*
%ADD10O,1.800000X1.800000*%
%ADD11R,1.800000X1.800000*%
%ADD12C,2.800000*%
%ADD13O,1.700000X1.700000*%
%ADD14C,1.700000*%
%ADD15C,2.700000*%
%ADD16R,2.700000X2.700000*%
G04 APERTURE END LIST*
D10*
%TO.C,J9*%
X121920000Y-51308000D03*
X119380000Y-51308000D03*
X116840000Y-51308000D03*
X114300000Y-51308000D03*
X111760000Y-51308000D03*
X109220000Y-51308000D03*
D11*
X106680000Y-51308000D03*
%TD*%
D12*
%TO.C,H4*%
X143312000Y-116300000D03*
%TD*%
%TO.C,H3*%
X83312000Y-116300000D03*
%TD*%
%TO.C,H2*%
X143312000Y-51308000D03*
%TD*%
%TO.C,H1*%
X83312000Y-51308000D03*
%TD*%
D10*
%TO.C,J10*%
X95430000Y-63155000D03*
X95430000Y-65695000D03*
X95430000Y-68235000D03*
D11*
X95430000Y-70775000D03*
%TD*%
D13*
%TO.C,R3*%
X140535000Y-69525000D03*
D14*
X130375000Y-69525000D03*
%TD*%
D13*
%TO.C,R2*%
X140660000Y-65850000D03*
D14*
X130500000Y-65850000D03*
%TD*%
D13*
%TO.C,R1*%
X83891000Y-79688000D03*
D14*
X94051000Y-79688000D03*
%TD*%
D15*
%TO.C,J8*%
X87376000Y-108563000D03*
D16*
X87376000Y-103563000D03*
%TD*%
D11*
%TO.C,J7*%
X124300000Y-99000000D03*
D10*
X124300000Y-96460000D03*
X124300000Y-93920000D03*
X124300000Y-91380000D03*
X124300000Y-88840000D03*
X124300000Y-86300000D03*
X124300000Y-83760000D03*
X124300000Y-81220000D03*
X124300000Y-78680000D03*
X124300000Y-76140000D03*
X124300000Y-73600000D03*
X124300000Y-71060000D03*
X124300000Y-68520000D03*
X124300000Y-65980000D03*
X124300000Y-63440000D03*
X124300000Y-60900000D03*
%TD*%
%TO.C,J6*%
X103900000Y-88840000D03*
X103900000Y-86300000D03*
X103900000Y-83760000D03*
X103900000Y-81220000D03*
X103900000Y-78680000D03*
X103900000Y-76140000D03*
X103900000Y-73600000D03*
X103900000Y-71060000D03*
X103900000Y-68520000D03*
X103900000Y-65980000D03*
X103900000Y-63440000D03*
D11*
X103900000Y-60900000D03*
%TD*%
D10*
%TO.C,J5*%
X95504000Y-107950000D03*
D11*
X95504000Y-105410000D03*
%TD*%
D15*
%TO.C,J4*%
X87401000Y-73763000D03*
X87401000Y-68763000D03*
X87401000Y-63763000D03*
D16*
X87401000Y-58763000D03*
%TD*%
D10*
%TO.C,J3*%
X139595000Y-59775000D03*
X137055000Y-59775000D03*
X134515000Y-59775000D03*
D11*
X131975000Y-59775000D03*
%TD*%
D15*
%TO.C,J2*%
X87376000Y-95888000D03*
X87376000Y-90888000D03*
D16*
X87376000Y-85888000D03*
%TD*%
D10*
%TO.C,J1*%
X95504000Y-93630000D03*
X95504000Y-91090000D03*
D11*
X95504000Y-88550000D03*
%TD*%
M02*
