G04 #@! TF.GenerationSoftware,KiCad,Pcbnew,5.1.4-e60b266~84~ubuntu18.04.1*
G04 #@! TF.CreationDate,2019-11-01T20:54:55-04:00*
G04 #@! TF.ProjectId,ib4,6962342e-6b69-4636-9164-5f7063625858,rev?*
G04 #@! TF.SameCoordinates,Original*
G04 #@! TF.FileFunction,Copper,L4,Bot*
G04 #@! TF.FilePolarity,Positive*
%FSLAX46Y46*%
G04 Gerber Fmt 4.6, Leading zero omitted, Abs format (unit mm)*
G04 Created by KiCad (PCBNEW 5.1.4-e60b266~84~ubuntu18.04.1) date 2019-11-01 20:54:55*
%MOMM*%
%LPD*%
G04 APERTURE LIST*
%ADD10R,1.700000X1.700000*%
%ADD11O,1.700000X1.700000*%
%ADD12C,1.300000*%
%ADD13R,1.300000X1.300000*%
%ADD14C,1.676400*%
%ADD15R,2.400000X2.400000*%
%ADD16C,2.400000*%
%ADD17R,2.000000X1.905000*%
%ADD18O,2.000000X1.905000*%
%ADD19C,1.600000*%
%ADD20O,1.600000X1.600000*%
%ADD21C,3.000000*%
%ADD22C,1.700000*%
G04 APERTURE END LIST*
D10*
X37400000Y72350000D03*
D11*
X37400000Y69810000D03*
X37400000Y67270000D03*
X37400000Y64730000D03*
X37400000Y62190000D03*
X37400000Y59650000D03*
D10*
X39700000Y16250000D03*
D12*
X49800000Y31930000D03*
X44800000Y29200000D03*
D13*
X44800000Y34200000D03*
D14*
X56493800Y57244600D03*
X56493800Y54704600D03*
X56493800Y52164600D03*
X56493800Y49624600D03*
X56493800Y47084600D03*
X56493800Y44544600D03*
X56493800Y42004600D03*
X56493800Y39464600D03*
X56493800Y36924600D03*
X56493800Y34384600D03*
X56493800Y31844600D03*
X56493800Y29304600D03*
X56493800Y26764600D03*
X56493800Y24224600D03*
X71733800Y24224600D03*
X71733800Y26764600D03*
X71733800Y29304600D03*
X71733800Y31844600D03*
X71733800Y34384600D03*
X71733800Y36924600D03*
X71733800Y39464600D03*
X71733800Y42004600D03*
X71733800Y44544600D03*
X71733800Y47084600D03*
X71733800Y49624600D03*
X71733800Y52164600D03*
X71733800Y54704600D03*
X71733800Y57244600D03*
D10*
X51650000Y49750000D03*
D11*
X51650000Y52290000D03*
D10*
X46700000Y20800000D03*
D15*
X13450000Y25950000D03*
D16*
X13450000Y22450000D03*
X13450000Y18950000D03*
X13150000Y35050000D03*
X13150000Y38550000D03*
D15*
X13150000Y42050000D03*
X13250000Y57350000D03*
D16*
X13250000Y53850000D03*
X13250000Y50350000D03*
D15*
X88150000Y11950000D03*
D16*
X88150000Y15450000D03*
X88150000Y18950000D03*
X88150000Y33450000D03*
X88150000Y29950000D03*
D15*
X88150000Y26450000D03*
D17*
X27400000Y19800000D03*
D18*
X27400000Y22340000D03*
X27400000Y24880000D03*
D19*
X33650000Y22500000D03*
D20*
X33650000Y17420000D03*
D19*
X38950000Y35950000D03*
D20*
X33870000Y35950000D03*
X27450000Y35480000D03*
D19*
X27450000Y30400000D03*
D10*
X26950000Y54650000D03*
D11*
X26950000Y52110000D03*
X26950000Y49570000D03*
X26950000Y47030000D03*
X26950000Y44490000D03*
D10*
X80500000Y66200000D03*
D11*
X80500000Y63660000D03*
X80500000Y61120000D03*
X80500000Y58580000D03*
X80500000Y56040000D03*
X80500000Y53500000D03*
X80500000Y50960000D03*
X80500000Y48420000D03*
X80500000Y45880000D03*
D15*
X26950000Y71750000D03*
D16*
X26950000Y68250000D03*
D10*
X39700000Y20800000D03*
D21*
X20600000Y27750000D03*
X21700000Y16800000D03*
X54000000Y65100000D03*
X49950000Y57300000D03*
X19350000Y62650000D03*
X19550000Y50350000D03*
X53850000Y21450000D03*
X52400000Y30800000D03*
X26700000Y39450000D03*
X19850000Y38900000D03*
X82100000Y22500000D03*
X81350000Y29850000D03*
X43500000Y46000000D03*
X43950000Y55500000D03*
X76150000Y22850000D03*
X76150000Y40150000D03*
X61300000Y30600000D03*
X61100000Y19600000D03*
D22*
X56430300Y39401100D02*
X56493800Y39464600D01*
X71797300Y24288100D02*
X71733800Y24224600D01*
X24490000Y52110000D02*
X26950000Y52110000D01*
X23050000Y53550000D02*
X24490000Y52110000D01*
X26950000Y71750000D02*
X24050000Y71750000D01*
X24050000Y71750000D02*
X23050000Y70750000D01*
X27130000Y52290000D02*
X26950000Y52110000D01*
X48350000Y52290000D02*
X47890000Y52290000D01*
X50447919Y52290000D02*
X47890000Y52290000D01*
X51650000Y52290000D02*
X50447919Y52290000D01*
X47890000Y52290000D02*
X27130000Y52290000D01*
X23050000Y70750000D02*
X23050000Y58150000D01*
X88150000Y33450000D02*
X91450000Y33450000D01*
X91450000Y33450000D02*
X92250000Y32650000D01*
X92250000Y23050000D02*
X88150000Y18950000D01*
X92250000Y32650000D02*
X92250000Y23050000D01*
X22550000Y42850000D02*
X23050000Y42350000D01*
X23050000Y42350000D02*
X23050000Y58150000D01*
X13250000Y57350000D02*
X21850000Y57350000D01*
X21850000Y57350000D02*
X23050000Y56150000D01*
X23050000Y58150000D02*
X23050000Y56150000D01*
X23050000Y56150000D02*
X23050000Y53550000D01*
X21750000Y42050000D02*
X13150000Y42050000D01*
X22550000Y42850000D02*
X21750000Y42050000D01*
X24150000Y19800000D02*
X27400000Y19800000D01*
X38700000Y19800000D02*
X27400000Y19800000D01*
X39700000Y20800000D02*
X38700000Y19800000D01*
X16350000Y25950000D02*
X13450000Y25950000D01*
X22550000Y42850000D02*
X22550000Y41300000D01*
X22550000Y41300000D02*
X23150000Y40700000D01*
X23150000Y40700000D02*
X23150000Y33250000D01*
X16350000Y26450000D02*
X16350000Y25950000D01*
X23150000Y33250000D02*
X23150000Y30300000D01*
X23150000Y30300000D02*
X20600000Y27750000D01*
X24150000Y19800000D02*
X24150000Y19250000D01*
X24150000Y19250000D02*
X21700000Y16800000D01*
X18800000Y25950000D02*
X20600000Y27750000D01*
X16350000Y25950000D02*
X18800000Y25950000D01*
X42250000Y20800000D02*
X39700000Y20800000D01*
X42250000Y18900000D02*
X42250000Y20800000D01*
X45050000Y16100000D02*
X42250000Y18900000D01*
X47950000Y16100000D02*
X45050000Y16100000D01*
X56493800Y26764600D02*
X55308407Y26764600D01*
X55308407Y26764600D02*
X55223007Y26850000D01*
X50350000Y26250000D02*
X50350000Y18500000D01*
X50350000Y18500000D02*
X47950000Y16100000D01*
X55223007Y26850000D02*
X50950000Y26850000D01*
X50950000Y26850000D02*
X50350000Y26250000D01*
X37400000Y69810000D02*
X33840000Y69810000D01*
X31900000Y71750000D02*
X26950000Y71750000D01*
X33840000Y69810000D02*
X31900000Y71750000D01*
X87050000Y36247056D02*
X88150000Y35147056D01*
X87050000Y62350000D02*
X87050000Y36247056D01*
X88150000Y35147056D02*
X88150000Y33450000D01*
X85740000Y63660000D02*
X87050000Y62350000D01*
X83800000Y70000000D02*
X68150000Y70000000D01*
X68150000Y70000000D02*
X63250000Y65100000D01*
X63250000Y65100000D02*
X54000000Y65100000D01*
X51650000Y52290000D02*
X51650000Y55600000D01*
X51650000Y55600000D02*
X49950000Y57300000D01*
X84360000Y69440000D02*
X83800000Y70000000D01*
X84360000Y63660000D02*
X84360000Y69440000D01*
X84360000Y63660000D02*
X85740000Y63660000D01*
X80500000Y63660000D02*
X84360000Y63660000D01*
X73835400Y52164600D02*
X71733800Y52164600D01*
X75050000Y50950000D02*
X73835400Y52164600D01*
X79287919Y50950000D02*
X75050000Y50950000D01*
X80500000Y50960000D02*
X79297919Y50960000D01*
X79297919Y50960000D02*
X79287919Y50950000D01*
X75295400Y54704600D02*
X71733800Y54704600D01*
X76450000Y53550000D02*
X75295400Y54704600D01*
X79247919Y53550000D02*
X76450000Y53550000D01*
X80500000Y53500000D02*
X79297919Y53500000D01*
X79297919Y53500000D02*
X79247919Y53550000D01*
X70548407Y49624600D02*
X71733800Y49624600D01*
X68750000Y50950000D02*
X70000000Y49700000D01*
X74784938Y60700000D02*
X70250000Y60700000D01*
X70000000Y49700000D02*
X70473007Y49700000D01*
X70250000Y60700000D02*
X68750000Y59200000D01*
X70473007Y49700000D02*
X70548407Y49624600D01*
X68750000Y59200000D02*
X68750000Y50950000D01*
X79444938Y56040000D02*
X74784938Y60700000D01*
X80500000Y56040000D02*
X79444938Y56040000D01*
X72048400Y26450000D02*
X71733800Y26764600D01*
X88150000Y11950000D02*
X82050000Y11950000D01*
X88150000Y26450000D02*
X75150000Y26450000D01*
X75150000Y26450000D02*
X72048400Y26450000D01*
X13450000Y18950000D02*
X8050000Y18950000D01*
X8050000Y18950000D02*
X4950000Y22050000D01*
X4950000Y22050000D02*
X4950000Y32450000D01*
X4950000Y32450000D02*
X7650000Y35150000D01*
X7750000Y35050000D02*
X13150000Y35050000D01*
X7650000Y35150000D02*
X7750000Y35050000D01*
X4950000Y32450000D02*
X4950000Y58750000D01*
X4950000Y58750000D02*
X4950000Y59650000D01*
X4950000Y58750000D02*
X4950000Y59850000D01*
X4950000Y59850000D02*
X7750000Y62650000D01*
X7750000Y62650000D02*
X19350000Y62650000D01*
X13250000Y50350000D02*
X19550000Y50350000D01*
X27450000Y30400000D02*
X27450000Y29000000D01*
X27450000Y29000000D02*
X21300000Y22850000D01*
X21300000Y22850000D02*
X21300000Y21800000D01*
X21300000Y21800000D02*
X18400000Y18900000D01*
X18350000Y18950000D02*
X13450000Y18950000D01*
X18400000Y18900000D02*
X18350000Y18950000D01*
X70335400Y26764600D02*
X71733800Y26764600D01*
X68700000Y43950000D02*
X68700000Y28400000D01*
X66000000Y46650000D02*
X68700000Y43950000D01*
X68700000Y28400000D02*
X70335400Y26764600D01*
X66000000Y61950000D02*
X66000000Y46650000D01*
X70200000Y66150000D02*
X66000000Y61950000D01*
X13450000Y17252944D02*
X24852944Y5850000D01*
X13450000Y18950000D02*
X13450000Y17252944D01*
X75950000Y5850000D02*
X82050000Y11950000D01*
X24852944Y5850000D02*
X75950000Y5850000D01*
X77900000Y66150000D02*
X70200000Y66150000D01*
X80500000Y66200000D02*
X77950000Y66200000D01*
X77950000Y66200000D02*
X77900000Y66150000D01*
X26950000Y49570000D02*
X48170000Y49570000D01*
X48350000Y49750000D02*
X48170000Y49570000D01*
X51650000Y49750000D02*
X48350000Y49750000D01*
X26950000Y59150000D02*
X26950000Y54650000D01*
X36197919Y59650000D02*
X35697919Y59150000D01*
X35697919Y59150000D02*
X26950000Y59150000D01*
X37400000Y59650000D02*
X36197919Y59650000D01*
X26950000Y68250000D02*
X26950000Y59150000D01*
X56493800Y24224600D02*
X56493800Y24093800D01*
X56493800Y24093800D02*
X53850000Y21450000D01*
X49800000Y31930000D02*
X51270000Y31930000D01*
X51270000Y31930000D02*
X52400000Y30800000D01*
X63000000Y58250000D02*
X63000000Y44450000D01*
X63000000Y44450000D02*
X65350000Y42100000D01*
X65350000Y42100000D02*
X65350000Y28900000D01*
X57679193Y24224600D02*
X56493800Y24224600D01*
X60674600Y24224600D02*
X57679193Y24224600D01*
X65350000Y28900000D02*
X60674600Y24224600D01*
X37400000Y72350000D02*
X40350000Y72350000D01*
X40350000Y72350000D02*
X52050000Y60650000D01*
X60600000Y60650000D02*
X60775000Y60475000D01*
X52050000Y60650000D02*
X60600000Y60650000D01*
X60775000Y60475000D02*
X63000000Y58250000D01*
X56430300Y34321100D02*
X56493800Y34384600D01*
X13450000Y22450000D02*
X10150000Y22450000D01*
X10150000Y22450000D02*
X8550000Y24050000D01*
X8550000Y24050000D02*
X8550000Y27850000D01*
X8550000Y27850000D02*
X11150000Y30450000D01*
X11150000Y30450000D02*
X15150000Y30450000D01*
X15150000Y30450000D02*
X17450000Y32750000D01*
X17450000Y32750000D02*
X17450000Y36950000D01*
X17450000Y36950000D02*
X15750000Y38650000D01*
X15650000Y38550000D02*
X13150000Y38550000D01*
X15750000Y38650000D02*
X15650000Y38550000D01*
X8950000Y53850000D02*
X13250000Y53850000D01*
X7950000Y52950000D02*
X8050000Y52950000D01*
X7950000Y40850000D02*
X7950000Y52950000D01*
X13150000Y38550000D02*
X10250000Y38550000D01*
X8050000Y52950000D02*
X8950000Y53850000D01*
X10250000Y38550000D02*
X7950000Y40850000D01*
X17450000Y36950000D02*
X17900000Y36950000D01*
X17900000Y36950000D02*
X19850000Y38900000D01*
X27450000Y38700000D02*
X26700000Y39450000D01*
X27450000Y35480000D02*
X27450000Y38700000D01*
X55308407Y34384600D02*
X55243007Y34450000D01*
X56493800Y34384600D02*
X55308407Y34384600D01*
X27450000Y35480000D02*
X31520000Y39550000D01*
X31520000Y39550000D02*
X49150000Y39550000D01*
X54315400Y34384600D02*
X55308407Y34384600D01*
X49150000Y39550000D02*
X54315400Y34384600D01*
X82100000Y19000000D02*
X82100000Y22500000D01*
X88150000Y15450000D02*
X85650000Y15450000D01*
X85650000Y15450000D02*
X82100000Y19000000D01*
X78650000Y29850000D02*
X81350000Y29850000D01*
X74150000Y34350000D02*
X78650000Y29850000D01*
X72953793Y34350000D02*
X74150000Y34350000D01*
X71733800Y34384600D02*
X72919193Y34384600D01*
X72919193Y34384600D02*
X72953793Y34350000D01*
X88150000Y29950000D02*
X86452944Y29950000D01*
X71733800Y36924600D02*
X80725400Y36924600D01*
X80725400Y36924600D02*
X84700000Y32950000D01*
X84700000Y31702944D02*
X86452944Y29950000D01*
X84700000Y32950000D02*
X84700000Y31702944D01*
X28152081Y47030000D02*
X28232081Y46950000D01*
X26950000Y47030000D02*
X28152081Y47030000D01*
X28232081Y46950000D02*
X31650000Y46950000D01*
X31650000Y46950000D02*
X38050000Y46950000D01*
X38050000Y46950000D02*
X39000000Y46000000D01*
X39000000Y46000000D02*
X43500000Y46000000D01*
X43950000Y59382081D02*
X43950000Y55500000D01*
X37400000Y64730000D02*
X38602081Y64730000D01*
X38602081Y64730000D02*
X43950000Y59382081D01*
X27859999Y43640001D02*
X27799999Y43640001D01*
X27799999Y43640001D02*
X26950000Y44490000D01*
X28950000Y42550000D02*
X27859999Y43640001D01*
X56493800Y44544600D02*
X53044600Y44544600D01*
X51050000Y42550000D02*
X28950000Y42550000D01*
X53044600Y44544600D02*
X51050000Y42550000D01*
X33650000Y11800000D02*
X33650000Y17420000D01*
X36200000Y9250000D02*
X33650000Y11800000D01*
X74650001Y18750001D02*
X65150000Y9250000D01*
X65150000Y9250000D02*
X36200000Y9250000D01*
X74650001Y18750001D02*
X74750001Y18750001D01*
X72923793Y42000000D02*
X73450000Y42000000D01*
X73450000Y42000000D02*
X73500000Y41950000D01*
X71733800Y42004600D02*
X72919193Y42004600D01*
X72919193Y42004600D02*
X72923793Y42000000D01*
X74350000Y41950000D02*
X76150000Y40150000D01*
X73500000Y41950000D02*
X74350000Y41950000D01*
X72923793Y42000000D02*
X73650000Y42000000D01*
X74750001Y18750001D02*
X76150000Y20150000D01*
X76150000Y20150000D02*
X76150000Y22850000D01*
X79164600Y44544600D02*
X71733800Y44544600D01*
X80500000Y45880000D02*
X79164600Y44544600D01*
X71825300Y47176100D02*
X71733800Y47084600D01*
X71733800Y47084600D02*
X77134600Y47084600D01*
X77134600Y47084600D02*
X78470000Y48420000D01*
X78470000Y48420000D02*
X80500000Y48420000D01*
X32040000Y22340000D02*
X27400000Y22340000D01*
X32200000Y22500000D02*
X33650000Y22500000D01*
X32040000Y22340000D02*
X32200000Y22500000D01*
X33870000Y31350000D02*
X27400000Y24880000D01*
X33870000Y35950000D02*
X33870000Y31350000D01*
X44800000Y22700000D02*
X46700000Y20800000D01*
X44800000Y29200000D02*
X44800000Y22700000D01*
X40700000Y34200000D02*
X38950000Y35950000D01*
X44800000Y34200000D02*
X40700000Y34200000D01*
X39700000Y13700000D02*
X40800000Y12600000D01*
X39700000Y16250000D02*
X39700000Y13700000D01*
X40800000Y12600000D02*
X53200000Y12600000D01*
X56493800Y57244600D02*
X58205400Y57244600D01*
X58205400Y57244600D02*
X59750000Y55700000D01*
X59750000Y55700000D02*
X59750000Y32150000D01*
X59750000Y32150000D02*
X61300000Y30600000D01*
X53200000Y12600000D02*
X54100000Y12600000D01*
X54100000Y12600000D02*
X61100000Y19600000D01*
M02*
