M48
; DRILL file {KiCad 5.1.4-e60b266~84~ubuntu18.04.1} date Fri 01 Nov 2019 08:54:57 PM EDT
; FORMAT={-:-/ absolute / metric / decimal}
; #@! TF.CreationDate,2019-11-01T20:54:57-04:00
; #@! TF.GenerationSoftware,Kicad,Pcbnew,5.1.4-e60b266~84~ubuntu18.04.1
FMAT,2
METRIC
T1C0.750
T2C0.800
T3C1.000
T4C1.100
T5C1.200
T6C1.500
T7C2.700
%
G90
G05
T1
X44.8Y34.2
X44.8Y29.2
X49.8Y31.93
T2
X27.45Y35.48
X27.45Y30.4
X33.87Y35.95
X38.95Y35.95
X33.65Y22.5
X33.65Y17.42
T3
X39.7Y16.25
X56.494Y57.245
X56.494Y54.705
X56.494Y52.165
X56.494Y49.625
X56.494Y47.085
X56.494Y44.545
X56.494Y42.005
X56.494Y39.465
X56.494Y36.925
X56.494Y34.385
X56.494Y31.845
X56.494Y29.305
X56.494Y26.765
X56.494Y24.225
X71.734Y57.245
X71.734Y54.705
X71.734Y52.165
X71.734Y49.625
X71.734Y47.085
X71.734Y44.545
X71.734Y42.005
X71.734Y39.465
X71.734Y36.925
X71.734Y34.385
X71.734Y31.845
X71.734Y29.305
X71.734Y26.765
X71.734Y24.225
X26.95Y54.65
X26.95Y52.11
X26.95Y49.57
X26.95Y47.03
X26.95Y44.49
X80.5Y66.2
X80.5Y63.66
X80.5Y61.12
X80.5Y58.58
X80.5Y56.04
X80.5Y53.5
X80.5Y50.96
X80.5Y48.42
X80.5Y45.88
X46.7Y20.8
X39.7Y20.8
X37.4Y72.35
X37.4Y69.81
X37.4Y67.27
X37.4Y64.73
X37.4Y62.19
X37.4Y59.65
X51.65Y52.29
X51.65Y49.75
T4
X27.4Y24.88
X27.4Y22.34
X27.4Y19.8
T5
X13.25Y57.35
X13.25Y53.85
X13.25Y50.35
X13.15Y42.05
X13.15Y38.55
X13.15Y35.05
X88.15Y33.45
X88.15Y29.95
X88.15Y26.45
X13.45Y25.95
X13.45Y22.45
X13.45Y18.95
X88.15Y18.95
X88.15Y15.45
X88.15Y11.95
X26.95Y71.75
X26.95Y68.25
T6
X19.35Y62.65
X19.55Y50.35
X19.85Y38.9
X20.6Y27.75
X21.7Y16.8
X26.7Y39.45
X43.5Y46.0
X43.95Y55.5
X49.95Y57.3
X52.4Y30.8
X53.85Y21.45
X54.0Y65.1
X61.1Y19.6
X61.3Y30.6
X76.15Y40.15
X76.15Y22.85
X81.35Y29.85
X82.1Y22.5
T7
X8.0Y70.75
X90.0Y70.75
X8.0Y4.75
X90.0Y4.75
T0
M30
